<svg width="34" height="34" viewBox="0 0 34 34" fill="none" xmlns="http://www.w3.org/2000/svg">
<g clip-path="url(#clip0_760_3929)">
<path d="M17.53 24.6014L23.8939 18.2374C24.1874 17.944 24.1874 17.4702 23.8939 17.1768C23.6005 16.8833 23.1267 16.8833 22.8333 17.1768L16.4693 23.5407C14.8111 25.1989 12.1171 25.1989 10.4589 23.5407C8.80072 21.8826 8.80072 19.1885 10.4589 17.5303L18.5906 9.39861C19.6619 8.32735 21.4084 8.32735 22.4797 9.39861C23.551 10.4699 23.551 12.2164 22.4797 13.2877L14.8783 20.8891C14.6439 21.1235 14.3259 21.2552 13.9944 21.2552C13.6629 21.2552 13.345 21.1235 13.1105 20.8891C12.8761 20.6547 12.7444 20.3367 12.7444 20.0052C12.7444 19.6737 12.8761 19.3558 13.1105 19.1213L20.0048 12.227C20.2983 11.9336 20.2983 11.4598 20.0048 11.1664C19.7114 10.8729 19.2376 10.8729 18.9442 11.1664L12.0499 18.0607C10.9786 19.1319 10.9786 20.8785 12.0499 21.9498C13.1211 23.021 14.8677 23.021 15.939 21.9498L23.5404 14.3484C25.1985 12.6902 25.1985 9.99612 23.5404 8.33795C21.8822 6.67979 19.1881 6.67979 17.53 8.33795L9.39822 16.4697C7.1567 18.7112 7.1567 22.3599 9.39822 24.6014C11.6398 26.8429 15.2884 26.8429 17.53 24.6014Z" fill="black" fill-opacity="0.7"/>
</g>
<defs>
<clipPath id="clip0_760_3929">
<rect width="24" height="24" fill="white" transform="translate(17 0.0294495) rotate(45)"/>
</clipPath>
</defs>
</svg>
