<svg width="18" height="18" viewBox="0 0 18 18" fill="none" xmlns="http://www.w3.org/2000/svg">
<path d="M6.75 2.25H5.25C5.25 0.975 6.225 0 7.5 0V1.5C7.05 1.5 6.75 1.8 6.75 2.25ZM12.75 2.25H11.25C11.25 1.8 10.95 1.5 10.5 1.5V0C11.775 0 12.75 0.975 12.75 2.25ZM12.75 4.5H5.25V2.25H6.75V3H11.25V2.25H12.75V4.5ZM7.5 0H10.5V1.5H7.5V0Z" fill="black" fill-opacity="0.7"/>
<path d="M15.75 4.5H2.25C1.8 4.5 1.5 4.2 1.5 3.75C1.5 3.3 1.8 3 2.25 3H15.75C16.2 3 16.5 3.3 16.5 3.75C16.5 4.2 16.2 4.5 15.75 4.5ZM14.25 18H3.75C3.3 18 3 17.7 3 17.25V6.75C3 6.3 3.3 6 3.75 6H14.25C14.7 6 15 6.3 15 6.75V17.25C15 17.7 14.7 18 14.25 18ZM4.5 16.5H13.5V7.5H4.5V16.5Z" fill="black" fill-opacity="0.7"/>
<path d="M7.5 15C7.05 15 6.75 14.7 6.75 14.25V9.75C6.75 9.3 7.05 9 7.5 9C7.95 9 8.25 9.3 8.25 9.75V14.25C8.25 14.7 7.95 15 7.5 15ZM10.5 15C10.05 15 9.75 14.7 9.75 14.25V9.75C9.75 9.3 10.05 9 10.5 9C10.95 9 11.25 9.3 11.25 9.75V14.25C11.25 14.7 10.95 15 10.5 15Z" fill="black" fill-opacity="0.7"/>
</svg>
