<svg width="17" height="19" viewBox="0 0 17 19" fill="none" xmlns="http://www.w3.org/2000/svg">
<path d="M2.25046 3.3832L2.25 13.4062C2.25 15.4773 3.86177 17.1719 5.89941 17.3042L6.15625 17.3125L13.0537 17.3136C12.7317 18.2233 11.8638 18.875 10.8438 18.875H5.375C2.78617 18.875 0.6875 16.7763 0.6875 14.1875V5.59375C0.6875 4.5731 1.33991 3.70482 2.25046 3.3832ZM13.9688 0.125C15.2632 0.125 16.3125 1.17433 16.3125 2.46875V13.4062C16.3125 14.7007 15.2632 15.75 13.9688 15.75H6.15625C4.86183 15.75 3.8125 14.7007 3.8125 13.4062V2.46875C3.8125 1.17433 4.86183 0.125 6.15625 0.125H13.9688ZM13.9688 1.6875H6.15625C5.72478 1.6875 5.375 2.03728 5.375 2.46875V13.4062C5.375 13.8377 5.72478 14.1875 6.15625 14.1875H13.9688C14.4002 14.1875 14.75 13.8377 14.75 13.4062V2.46875C14.75 2.03728 14.4002 1.6875 13.9688 1.6875Z" fill="#69E167"/>
</svg>
