<svg width="254" height="211" viewBox="0 0 254 211" fill="none" xmlns="http://www.w3.org/2000/svg">
<g clip-path="url(#clip0_136_3635)">
<path opacity="0.2" d="M127.456 141.679C128.087 141.869 128.718 142.024 129.351 142.161C127.588 145.101 126.735 148.496 126.9 151.919C127.064 155.343 128.238 158.641 130.275 161.398C132.311 164.155 135.118 166.247 138.342 167.412C141.566 168.577 145.063 168.761 148.391 167.942C149.436 170.019 150.94 171.832 152.789 173.243C154.639 174.654 156.784 175.625 159.065 176.084C161.345 176.543 163.7 176.478 165.951 175.893C168.202 175.308 170.291 174.218 172.059 172.707C174.408 176.589 178.14 179.438 182.505 180.681C186.869 181.924 191.543 181.469 195.585 179.407C199.628 177.345 202.74 173.83 204.296 169.567C205.852 165.305 205.736 160.612 203.972 156.432C204.504 156.632 205.046 156.822 205.601 156.988C209.191 158.066 212.976 158.328 216.68 157.754C220.385 157.181 223.914 155.786 227.009 153.673C230.105 151.56 232.689 148.782 234.572 145.542C236.456 142.302 237.591 138.682 237.894 134.946C238.197 131.211 237.662 127.455 236.326 123.954C234.991 120.452 232.889 117.293 230.175 114.709C227.461 112.124 224.203 110.178 220.64 109.015C217.077 107.851 213.298 107.499 209.582 107.983C209.098 104.202 207.633 100.612 205.332 97.5723C203.031 94.5321 199.974 92.1468 196.466 90.6534C192.957 89.16 189.119 88.6105 185.332 89.0595C181.546 89.5084 177.943 90.9403 174.881 93.2127C170.785 90.3804 165.801 89.1285 160.852 89.6888C155.903 90.2492 151.326 92.5838 147.967 96.2602C144.925 94.3673 141.514 93.1461 137.961 92.6786C134.409 92.2111 130.798 92.5079 127.37 93.5493C123.942 94.5907 120.776 96.3525 118.084 98.7167C115.392 101.081 113.237 103.993 111.763 107.258C110.288 110.523 109.529 114.065 109.535 117.647C109.542 121.229 110.313 124.768 111.799 128.028C113.285 131.288 115.451 134.192 118.151 136.547C120.851 138.902 124.023 140.652 127.455 141.681L127.456 141.679Z" fill="#69E167"/>
<path opacity="0.2" d="M129.285 23.9417C128.627 23.9417 127.977 23.9753 127.331 24.0236C128.175 20.7018 128.017 17.2047 126.875 13.9729C125.734 10.7411 123.662 7.91937 120.919 5.86334C118.177 3.8073 114.887 2.609 111.464 2.41946C108.041 2.22992 104.639 3.05762 101.686 4.79825C100.088 3.10833 98.1268 1.80396 95.9502 0.983841C93.7736 0.163724 91.4389 -0.150644 89.1229 0.0645281C86.8069 0.279701 84.5701 1.01878 82.5819 2.22582C80.5938 3.43286 78.9063 5.07625 77.6472 7.0316C74.2814 3.98833 69.8881 2.33175 65.3505 2.39491C60.8129 2.45806 56.4674 4.23627 53.1877 7.37203C49.908 10.5078 47.9371 14.7686 47.6715 19.2979C47.4058 23.8272 48.8649 28.2891 51.7555 31.7867C51.1864 31.7482 50.6141 31.7216 50.0359 31.7216C46.288 31.7212 42.5875 32.5584 39.2049 34.1721C35.8223 35.7857 32.8434 38.135 30.4859 41.0479C28.1284 43.9609 26.4521 47.3639 25.5796 51.0081C24.707 54.6522 24.6603 58.4453 25.4429 62.1098C26.2255 65.7743 27.8175 69.2175 30.1026 72.1876C32.3876 75.1577 35.3079 77.5795 38.6497 79.2759C41.9915 80.9723 45.6704 81.9003 49.4171 81.9921C53.1639 82.0839 56.8838 81.3372 60.3047 79.8064C61.8547 83.2896 64.2894 86.3067 67.3668 88.5578C70.4443 90.809 74.0573 92.2158 77.847 92.6386C81.6366 93.0614 85.471 92.4853 88.969 90.9677C92.467 89.4501 95.507 87.0438 97.7868 83.9878C102.524 85.5243 107.658 85.2919 112.237 83.3339C116.816 81.3758 120.53 77.8247 122.69 73.3385C126.148 74.2788 129.767 74.4693 133.305 73.8973C136.842 73.3253 140.216 72.004 143.201 70.0219C146.186 68.0398 148.713 65.4427 150.612 62.4046C152.511 59.3666 153.739 55.9578 154.213 52.4067C154.687 48.8556 154.397 45.2441 153.361 41.8145C152.325 38.3848 150.568 35.216 148.208 32.5206C145.847 29.8251 142.938 27.6653 139.674 26.1857C136.411 24.7061 132.868 23.941 129.285 23.9417Z" fill="#69E167"/>
<path d="M145.433 151.61C145.408 157.003 143.248 162.168 139.425 165.974C135.601 169.779 130.426 171.916 125.031 171.916C119.636 171.916 114.46 169.779 110.637 165.974C106.813 162.168 104.653 157.003 104.629 151.61H145.433Z" fill="white" stroke="#292A2E" stroke-width="2" stroke-linecap="round" stroke-linejoin="round"/>
<path d="M145.429 151.61C145.429 157.019 143.28 162.206 139.454 166.031C135.628 169.856 130.439 172.005 125.029 172.005C119.619 172.005 114.43 169.856 110.604 166.031C106.778 162.206 104.629 157.019 104.629 151.61" fill="white"/>
<path d="M145.429 151.61C145.429 157.019 143.28 162.206 139.454 166.031C135.628 169.856 130.439 172.005 125.029 172.005C119.619 172.005 114.43 169.856 110.604 166.031C106.778 162.206 104.629 157.019 104.629 151.61" stroke="#292A2E" stroke-width="2" stroke-linecap="round" stroke-linejoin="round"/>
<path d="M215.816 151.61V202.494C215.815 204.632 214.964 206.682 213.452 208.194C211.939 209.705 209.888 210.554 207.75 210.554H42.3098C40.1714 210.554 38.1205 209.705 36.608 208.194C35.0955 206.682 34.2452 204.632 34.2441 202.494V151.61H104.628C104.653 157.003 106.813 162.168 110.636 165.974C114.46 169.779 119.635 171.916 125.03 171.916C130.425 171.916 135.601 169.779 139.424 165.974C143.248 162.168 145.408 157.003 145.432 151.61H215.816Z" fill="white"/>
<path d="M207.75 210.963H42.3091C40.0626 210.961 37.9087 210.069 36.3199 208.481C34.731 206.893 33.837 204.74 33.834 202.494V151.61C33.834 151.501 33.8771 151.397 33.9539 151.32C34.0307 151.243 34.1348 151.2 34.2434 151.2H104.628C104.736 151.2 104.84 151.243 104.917 151.32C104.994 151.397 105.037 151.501 105.037 151.61C105.037 156.911 107.143 161.995 110.893 165.743C114.642 169.492 119.727 171.597 125.029 171.597C130.332 171.597 135.417 169.492 139.166 165.743C142.915 161.995 145.022 156.911 145.022 151.61C145.022 151.501 145.065 151.397 145.141 151.32C145.218 151.243 145.322 151.2 145.431 151.2H215.815C215.923 151.2 216.028 151.243 216.104 151.32C216.181 151.397 216.224 151.501 216.224 151.61V202.494C216.221 204.74 215.327 206.893 213.739 208.481C212.15 210.069 209.996 210.961 207.75 210.963ZM34.6524 152.019V202.494C34.6552 204.523 35.4629 206.468 36.8982 207.902C38.3335 209.336 40.2793 210.143 42.3087 210.145H207.75C209.779 210.143 211.725 209.336 213.16 207.902C214.595 206.468 215.403 204.523 215.406 202.494V152.019H145.836C145.731 157.466 143.492 162.655 139.602 166.471C135.711 170.286 130.479 172.423 125.029 172.423C119.579 172.423 114.347 170.286 110.456 166.471C106.566 162.655 104.327 157.466 104.222 152.019H34.6524Z" fill="#292A2E"/>
<path d="M215.816 151.61H145.432C145.408 157.003 143.248 162.168 139.424 165.974C135.601 169.779 130.425 171.916 125.03 171.916C119.635 171.916 114.46 169.779 110.636 165.974C106.813 162.168 104.653 157.003 104.628 151.61H34.2441L85.7007 119.247H166.419L215.816 151.61Z" fill="#69E167"/>
<path opacity="0.6" d="M215.816 151.61H145.432C145.408 157.003 143.248 162.168 139.424 165.974C135.601 169.779 130.425 171.916 125.03 171.916C119.635 171.916 114.46 169.779 110.636 165.974C106.813 162.168 104.653 157.003 104.628 151.61H34.2441L85.7007 119.247H166.419L215.816 151.61Z" fill="white"/>
<path d="M125.03 172.416C119.583 172.41 114.355 170.272 110.466 166.459C106.577 162.647 104.336 157.463 104.223 152.019H34.2436C34.1547 152.019 34.0683 151.99 33.9973 151.937C33.9263 151.883 33.8746 151.808 33.85 151.723C33.8254 151.637 33.8292 151.546 33.8609 151.463C33.8927 151.38 33.9505 151.31 34.0258 151.263L85.4823 118.901C85.5475 118.86 85.623 118.838 85.7001 118.838H166.418C166.498 118.838 166.576 118.861 166.643 118.905L216.04 151.267C216.113 151.316 216.17 151.386 216.2 151.469C216.23 151.552 216.233 151.642 216.207 151.727C216.182 151.811 216.131 151.885 216.06 151.938C215.989 151.99 215.904 152.019 215.815 152.019H145.837C145.724 157.463 143.482 162.647 139.593 166.459C135.704 170.272 130.477 172.41 125.03 172.416ZM35.6635 151.2H104.628C104.737 151.2 104.841 151.243 104.918 151.32C104.995 151.397 105.038 151.501 105.038 151.61C105.038 156.911 107.144 161.995 110.893 165.743C114.643 169.492 119.728 171.597 125.03 171.597C130.332 171.597 135.417 169.492 139.167 165.743C142.916 161.995 145.022 156.911 145.022 151.61C145.022 151.501 145.065 151.397 145.142 151.32C145.219 151.243 145.323 151.2 145.432 151.2H214.443L166.295 119.656H85.818L35.6635 151.2Z" fill="#292A2E"/>
<path d="M57.953 121.879C57.878 121.878 57.8044 121.858 57.7403 121.819C57.6762 121.78 57.6241 121.724 57.5897 121.657C57.5553 121.59 57.5398 121.516 57.545 121.441C57.5503 121.366 57.576 121.294 57.6194 121.233C57.6951 121.125 65.0946 110.43 56.8341 100.68C55.372 98.945 53.5479 97.5506 51.4897 96.5948C49.4315 95.639 47.1892 95.1449 44.9198 95.1472H44.8109C45.5954 97.8722 45.4553 100.295 44.3446 102.153C43.8713 102.992 43.1729 103.683 42.328 104.148C41.4831 104.612 40.5253 104.831 39.5625 104.781C38.7655 104.716 38.0049 104.419 37.3738 103.928C36.7427 103.437 36.2684 102.773 36.0091 102.017C35.1006 99.6475 36.05 97.3503 38.5524 95.8697C40.1376 94.9956 41.8992 94.4891 43.7067 94.3879C43.1188 92.8292 42.3542 91.3431 41.4278 89.9584C38.4452 85.4042 33.0092 82.2514 26.5129 81.3087C21.0082 80.5097 15.7323 81.4504 13.0706 83.7042C12.9878 83.7744 12.8804 83.8088 12.7722 83.7998C12.664 83.7909 12.5637 83.7393 12.4935 83.6565C12.4233 83.5737 12.3889 83.4663 12.3979 83.3581C12.4068 83.2499 12.4584 83.1497 12.5412 83.0795C15.3741 80.6808 20.9042 79.6669 26.6308 80.5007C33.3589 81.477 39.0016 84.7615 42.1132 89.5119C43.1221 91.0182 43.9426 92.6424 44.5567 94.3482C47.0043 94.2895 49.4339 94.7806 51.6665 95.7851C53.8991 96.7897 55.878 98.2821 57.4572 100.153C66.1342 110.394 58.3649 121.596 58.2855 121.708C58.2476 121.761 58.1977 121.804 58.1399 121.833C58.0821 121.863 58.018 121.879 57.953 121.879ZM43.972 95.1775C42.2196 95.2523 40.5082 95.7304 38.9709 96.5746C36.8107 97.8529 36.0107 99.7297 36.7751 101.724C36.9821 102.335 37.3629 102.873 37.8707 103.271C38.3786 103.669 38.9915 103.91 39.6345 103.966C40.4441 104.002 41.2478 103.812 41.9557 103.418C42.6636 103.024 43.2479 102.44 43.6432 101.733C44.6639 100.026 44.7573 97.7571 43.972 95.1775Z" fill="#292A2E"/>
<path d="M6.00538 90.3056C5.31027 90.5133 4.5615 90.4416 3.9185 90.1057C3.27549 89.7697 2.78905 89.1961 2.56274 88.5069C2.33644 87.8178 2.38814 87.0675 2.70685 86.4159C3.02556 85.7643 3.58609 85.2628 4.2691 85.0182C4.95211 84.7736 5.70365 84.8053 6.36368 85.1064C7.02372 85.4075 7.54012 85.9543 7.80293 86.6304C8.06574 87.3065 8.05419 88.0584 7.77076 88.7261C7.48733 89.3938 6.95439 89.9245 6.28542 90.2053C6.1939 90.2436 6.10042 90.2771 6.00538 90.3056ZM4.64404 85.7562C4.26324 85.8704 3.92604 86.0974 3.67698 86.4072C3.42792 86.7171 3.2787 87.0951 3.24904 87.4915C3.21937 87.8879 3.31065 88.2839 3.51082 88.6274C3.71099 88.9708 4.01064 89.2455 4.37019 89.4151C4.72975 89.5847 5.13231 89.6413 5.52471 89.5774C5.91711 89.5135 6.2809 89.3321 6.56804 89.0572C6.85519 88.7823 7.05217 88.4268 7.133 88.0376C7.21383 87.6484 7.17469 87.2438 7.02075 86.8774C6.83386 86.4293 6.48729 86.0666 6.04819 85.8595C5.6091 85.6524 5.10873 85.6155 4.64404 85.7562Z" fill="#292A2E"/>
<path d="M6.00045 83.89C5.34224 84.0864 4.63463 84.0327 4.01368 83.7391C3.39272 83.4454 2.90227 82.9326 2.63661 82.2993C2.42362 81.7916 2.366 81.2322 2.47104 80.6918C2.57608 80.1513 2.83905 79.6542 3.22671 79.2632C3.61436 78.8722 4.10928 78.6049 4.64888 78.4951C5.18849 78.3853 5.74853 78.438 6.25818 78.6465C6.76784 78.8549 7.20423 79.2098 7.51214 79.6662C7.82006 80.1226 7.98569 80.6601 7.98808 81.2106C7.99047 81.7612 7.82951 82.3001 7.52556 82.7591C7.22161 83.2182 6.78832 83.5768 6.28049 83.7897C6.18895 83.828 6.09548 83.8615 6.00045 83.89ZM4.64074 79.3406C4.57401 79.3607 4.5085 79.3844 4.44299 79.4114C3.96251 79.6131 3.58178 79.9972 3.38454 80.4794C3.1873 80.9617 3.18969 81.5024 3.39118 81.9829C3.53805 82.3331 3.78326 82.6332 4.09715 82.8469C4.41103 83.0607 4.78014 83.1789 5.15983 83.1874C5.53953 83.1958 5.91353 83.0941 6.2366 82.8945C6.55968 82.6949 6.81798 82.406 6.98028 82.0627C7.14257 81.7194 7.20189 81.3364 7.15108 80.9601C7.10026 80.5838 6.94148 80.2303 6.69393 79.9424C6.44639 79.6544 6.1207 79.4443 5.75624 79.3375C5.39179 79.2307 5.00419 79.2318 4.64033 79.3406H4.64074Z" fill="#292A2E"/>
<path d="M5.20506 86.7848C7.21571 86.7848 8.84567 85.6964 8.84567 84.3538C8.84567 83.0112 7.21571 81.9227 5.20506 81.9227C3.19441 81.9227 1.56445 83.0112 1.56445 84.3538C1.56445 85.6964 3.19441 86.7848 5.20506 86.7848Z" fill="white"/>
<path d="M6.81542 86.9637C6.29349 87.1181 5.75189 87.1957 5.20761 87.1942C2.93653 87.1942 1.15676 85.9498 1.1543 84.3571C1.15184 82.7643 2.9308 81.5154 5.20147 81.5134C6.19144 81.4944 7.16543 81.7647 8.00398 82.2911C8.38049 82.4873 8.69604 82.7829 8.91638 83.1458C9.13671 83.5086 9.2534 83.9249 9.25378 84.3494C9.25416 84.7739 9.13822 85.1904 8.91853 85.5536C8.69885 85.9169 8.38383 86.213 8.00767 86.4099C7.63983 86.6524 7.23804 86.8391 6.81542 86.9637ZM3.8434 82.5281C2.74942 82.8556 1.97397 83.5625 1.97438 84.3562C1.97438 85.4524 3.45527 86.3767 5.20884 86.3755C6.03722 86.3928 6.85271 86.1685 7.55566 85.73C7.8193 85.6085 8.04256 85.414 8.19896 85.1695C8.35536 84.925 8.43833 84.6408 8.43802 84.3506C8.43772 84.0604 8.35416 83.7764 8.19726 83.5322C8.04035 83.288 7.81669 83.094 7.5528 82.9731C6.84932 82.5359 6.03366 82.3131 5.20556 82.3321C4.7444 82.331 4.28553 82.397 3.8434 82.5281Z" fill="#292A2E"/>
<path d="M6.09805 86.7103L6.01207 81.9829L4.8362 81.935L4.75391 86.766L6.09805 86.7103Z" fill="#292A2E"/>
<path d="M0.375852 85.3824C0.58343 85.3824 0.751705 85.2142 0.751705 85.0067C0.751705 84.7991 0.58343 84.6309 0.375852 84.6309C0.168275 84.6309 0 84.7991 0 85.0067C0 85.2142 0.168275 85.3824 0.375852 85.3824Z" fill="#292A2E"/>
<path d="M0.668821 83.3714C0.876398 83.3714 1.04467 83.2031 1.04467 82.9956C1.04467 82.7881 0.876398 82.6198 0.668821 82.6198C0.461244 82.6198 0.292969 82.7881 0.292969 82.9956C0.292969 83.2031 0.461244 83.3714 0.668821 83.3714Z" fill="#292A2E"/>
<path d="M96.6973 40.5543L178.578 77.8838L153.682 132.469C153.294 133.318 152.586 133.978 151.712 134.304C150.838 134.631 149.871 134.597 149.022 134.21L73.5421 99.7982C72.6933 99.4112 72.033 98.703 71.7065 97.8293C71.38 96.9556 71.414 95.9881 71.8011 95.1395L96.6973 40.5543Z" fill="#69E167"/>
<path d="M96.6973 40.5543L178.578 77.8838L153.682 132.469C153.294 133.318 152.586 133.978 151.712 134.304C150.838 134.631 149.871 134.597 149.022 134.21L73.5421 99.7982C72.6933 99.4112 72.033 98.703 71.7065 97.8293C71.38 96.9556 71.414 95.9881 71.8011 95.1395L96.6973 40.5543Z" fill="white"/>
<path d="M150.479 134.937C149.917 134.936 149.362 134.815 148.852 134.581L73.3725 100.171C72.4256 99.7378 71.6891 98.9471 71.3247 97.972C70.9604 96.9968 70.9978 95.917 71.429 94.9695L96.3249 40.384C96.3472 40.335 96.3789 40.2909 96.4183 40.2542C96.4576 40.2175 96.5039 40.189 96.5543 40.1701C96.6047 40.1513 96.6584 40.1426 96.7121 40.1446C96.7659 40.1465 96.8188 40.159 96.8678 40.1814L178.747 77.5101C178.797 77.5322 178.841 77.5638 178.878 77.603C178.915 77.6423 178.943 77.6884 178.962 77.7388C178.981 77.7892 178.99 77.8428 178.989 77.8966C178.987 77.9505 178.974 78.0034 178.952 78.0524L154.054 132.638C153.741 133.323 153.237 133.904 152.604 134.311C151.97 134.719 151.233 134.936 150.479 134.937ZM96.9005 41.0975L72.1741 95.3093C71.833 96.0593 71.8034 96.9139 72.0918 97.6856C72.3802 98.4574 72.963 99.0833 73.7123 99.426L149.191 133.836C149.563 134.006 149.964 134.1 150.372 134.114C150.78 134.129 151.186 134.063 151.569 133.92C151.951 133.777 152.302 133.56 152.6 133.282C152.899 133.004 153.139 132.67 153.309 132.298L178.035 78.0852L96.9005 41.0975Z" fill="#292A2E"/>
<path d="M125.69 75.6389L125.69 75.6389L125.686 75.634L96.8619 40.6113L149.489 28.7261C149.49 28.726 149.49 28.726 149.49 28.7259C150.149 28.5788 150.838 28.6507 151.453 28.9305C152.067 29.2104 152.574 29.6831 152.895 30.2768C152.895 30.277 152.895 30.2771 152.895 30.2772L178.43 77.7977L132.392 78.8013H132.259C130.997 78.7981 129.752 78.5123 128.616 77.9651C127.479 77.4178 126.479 76.623 125.69 75.6389Z" fill="#C1F3C1" stroke="black"/>
<path d="M184.494 109.853C184.406 109.853 184.321 109.825 184.25 109.773C184.18 109.721 184.128 109.648 184.102 109.564C182.744 104.494 182.381 99.2087 183.035 94.0006C184.093 86.387 188.293 76.3946 202.29 72.0192C204.26 71.3863 206.28 70.9233 208.329 70.6353C208.988 66.5169 211.497 62.0494 217.108 58.9691C230.44 51.6453 239.445 58.2164 239.534 58.2835C239.577 58.3157 239.613 58.3562 239.641 58.4024C239.668 58.4487 239.686 58.4999 239.694 58.5531C239.701 58.6063 239.699 58.6605 239.685 58.7126C239.672 58.7646 239.648 58.8136 239.616 58.8566C239.584 58.8996 239.543 58.9358 239.497 58.9632C239.451 58.9906 239.4 59.0086 239.346 59.0162C239.293 59.0238 239.239 59.0208 239.187 59.0075C239.135 58.9942 239.086 58.9707 239.043 58.9384C238.958 58.8746 230.352 52.6281 217.503 59.6871C212.26 62.5676 209.86 66.7019 209.177 70.5399C215.351 69.932 218.307 71.991 219.634 73.5465C220.455 74.4815 220.983 75.6374 221.152 76.8703C221.32 78.1031 221.122 79.3583 220.582 80.4794C220.156 81.3856 219.464 82.141 218.599 82.6459C217.734 83.1509 216.736 83.3815 215.737 83.3075C212.289 83.1057 209.436 80.2056 208.469 75.9198C208.15 74.469 208.065 72.9766 208.217 71.499C206.29 71.7756 204.39 72.2124 202.536 72.8047C191.627 76.2153 185.34 83.3861 183.847 94.1177C183.206 99.2075 183.559 104.373 184.886 109.329C184.905 109.39 184.909 109.455 184.898 109.518C184.887 109.581 184.862 109.641 184.824 109.692C184.785 109.743 184.736 109.785 184.679 109.814C184.622 109.843 184.558 109.858 184.494 109.858L184.494 109.853ZM209.052 71.3942C208.881 72.8436 208.954 74.3114 209.267 75.7368C210.152 79.6575 212.71 82.3071 215.785 82.4876C216.623 82.5477 217.459 82.3531 218.184 81.9294C218.91 81.5057 219.49 80.8727 219.849 80.1135C220.317 79.1358 220.487 78.0423 220.338 76.9688C220.189 75.8954 219.727 74.8894 219.011 74.0761C217.096 71.8301 213.602 70.923 209.052 71.3942Z" fill="#292A2E"/>
<path d="M249.073 62.4186C248.521 62.4176 247.981 62.2606 247.515 61.9658C247.049 61.6711 246.676 61.2506 246.439 60.7529C246.202 60.2552 246.11 59.7005 246.174 59.153C246.239 58.6054 246.457 58.0873 246.804 57.6583C247.15 57.2294 247.611 56.9072 248.133 56.7288C248.654 56.5505 249.216 56.5233 249.753 56.6504C250.289 56.7776 250.779 57.0538 251.165 57.4473C251.552 57.8407 251.819 58.3354 251.936 58.8742C252.028 59.3012 252.023 59.7435 251.922 60.1685C251.821 60.5935 251.626 60.9905 251.351 61.3304C251.077 61.6703 250.73 61.9444 250.335 62.1327C249.941 62.321 249.51 62.4187 249.073 62.4186ZM249.079 57.3899C248.765 57.3901 248.454 57.4607 248.171 57.5964C247.887 57.732 247.638 57.9294 247.441 58.174C247.243 58.4186 247.103 58.7043 247.031 59.01C246.959 59.3157 246.955 59.6338 247.022 59.9409C247.106 60.3289 247.299 60.6852 247.577 60.9685C247.855 61.2519 248.208 61.4508 248.594 61.5422C248.981 61.6336 249.385 61.6138 249.761 61.4852C250.137 61.3565 250.468 61.1242 250.717 60.8151C250.967 60.506 251.123 60.1326 251.169 59.7382C251.215 59.3439 251.149 58.9445 250.978 58.5863C250.806 58.2281 250.537 57.9257 250.201 57.714C249.865 57.5023 249.476 57.3899 249.079 57.3899Z" fill="#292A2E"/>
<path d="M247.839 69.0998C247.088 69.1004 246.365 68.8128 245.819 68.2963C245.273 67.7798 244.946 67.0737 244.905 66.3234C244.864 65.5731 245.112 64.8356 245.599 64.2629C246.085 63.6902 246.773 63.3257 247.52 63.2446C248.267 63.1635 249.017 63.3719 249.615 63.8269C250.214 64.2819 250.615 64.9489 250.736 65.6905C250.857 66.4321 250.689 67.1919 250.267 67.8135C249.844 68.4351 249.2 68.8712 248.465 69.0319C248.26 69.0772 248.05 69.0999 247.839 69.0998ZM247.85 64.0707C247.699 64.0708 247.548 64.0871 247.4 64.1194C246.877 64.2343 246.418 64.5451 246.117 64.9881C245.816 65.431 245.697 65.9724 245.783 66.5007C245.869 67.029 246.155 67.5042 246.581 67.8284C247.007 68.1526 247.541 68.3012 248.074 68.2436C248.606 68.1861 249.096 67.9267 249.443 67.5189C249.79 67.1111 249.967 66.5858 249.939 66.0512C249.91 65.5167 249.677 65.0134 249.289 64.645C248.9 64.2766 248.385 64.0711 247.85 64.0707Z" fill="#292A2E"/>
<path d="M252.237 63.614C252.495 62.2159 251.007 60.7693 248.913 60.383C246.819 59.9968 244.913 60.817 244.655 62.2152C244.397 63.6134 245.885 65.0599 247.979 65.4462C250.072 65.8325 251.979 65.0122 252.237 63.614Z" fill="white"/>
<path d="M249.013 65.9524C248.642 65.9518 248.272 65.9175 247.907 65.8497C246.878 65.679 245.92 65.2115 245.153 64.5046C244.801 64.2305 244.532 63.8653 244.374 63.4487C244.215 63.0321 244.174 62.58 244.255 62.1418C244.336 61.7035 244.536 61.2959 244.832 60.9632C245.129 60.6305 245.511 60.3855 245.937 60.2549C246.911 59.8871 247.967 59.7925 248.991 59.9814C250.014 60.1703 250.967 60.6354 251.745 61.3265C252.097 61.6006 252.366 61.9658 252.525 62.3825C252.683 62.7991 252.724 63.2511 252.643 63.6893C252.562 64.1276 252.362 64.5353 252.066 64.868C251.769 65.2007 251.387 65.4456 250.961 65.5763C250.344 65.8318 249.681 65.9598 249.013 65.9524ZM247.882 60.697C247.326 60.6899 246.774 60.7953 246.26 61.0068C245.958 61.0838 245.685 61.2456 245.472 61.473C245.26 61.7005 245.117 61.9841 245.06 62.2903C245.003 62.5965 245.036 62.9125 245.153 63.2009C245.271 63.4893 245.468 63.738 245.723 63.9176C246.385 64.4955 247.191 64.8846 248.055 65.0441C248.919 65.2036 249.811 65.1277 250.636 64.8243C250.927 64.727 251.189 64.5587 251.399 64.3345C251.608 64.1104 251.758 63.8375 251.836 63.5406C251.869 63.2357 251.826 62.9273 251.711 62.6432C251.595 62.359 251.41 62.1083 251.173 61.9135C250.522 61.3191 249.711 60.9275 248.84 60.7866C248.523 60.7277 248.202 60.6977 247.881 60.697H247.882Z" fill="#292A2E"/>
<path d="M247.974 60.2893L247.15 65.2283L248.366 65.505L249.384 60.4911L247.974 60.2893Z" fill="#292A2E"/>
<path d="M252.91 65.6029C253.129 65.6029 253.308 65.4247 253.308 65.205C253.308 64.9852 253.129 64.8071 252.91 64.8071C252.69 64.8071 252.512 64.9852 252.512 65.205C252.512 65.4247 252.69 65.6029 252.91 65.6029Z" fill="#292A2E"/>
<path d="M253.603 63.566C253.823 63.566 254.001 63.3879 254.001 63.1681C254.001 62.9484 253.823 62.7702 253.603 62.7702C253.383 62.7702 253.205 62.9484 253.205 63.1681C253.205 63.3879 253.383 63.566 253.603 63.566Z" fill="#292A2E"/>
</g>
<defs>
<clipPath id="clip0_136_3635">
<rect width="254" height="210.963" fill="white"/>
</clipPath>
</defs>
</svg>
