<svg width="255" height="254" viewBox="0 0 255 254" fill="none" xmlns="http://www.w3.org/2000/svg">
<g clip-path="url(#clip0_136_3416)">
<path opacity="0.1" d="M127.5 253.998C197.64 253.998 254.5 197.139 254.5 126.999C254.5 56.8595 197.64 0 127.5 0C57.3599 0 0.5 56.8595 0.5 126.999C0.5 197.139 57.3599 253.998 127.5 253.998Z" fill="#69E167"/>
<path d="M72.5537 88.905C73.0129 88.3902 73.5689 87.9709 74.1902 87.671C74.8114 87.3711 75.4856 87.1965 76.1743 87.1571C76.8629 87.1178 77.5526 87.2145 78.204 87.4417C78.8553 87.6689 79.4555 88.0221 79.9703 88.4813L96.734 103.433L89.741 111.273L72.9772 96.3218C72.4624 95.8626 72.0431 95.3065 71.7431 94.6853C71.4432 94.0641 71.2686 93.3898 71.2293 92.7011C71.19 92.0124 71.2867 91.3227 71.514 90.6713C71.7412 90.02 72.0945 89.4198 72.5537 88.905Z" fill="white"/>
<path d="M89.7817 112.005L72.6321 96.7083C72.0665 96.2038 71.6057 95.5928 71.2762 94.9103C70.9467 94.2277 70.7548 93.4869 70.7115 92.7302C70.6683 91.9735 70.7745 91.2157 71.0241 90.5C71.2738 89.7844 71.6619 89.1249 72.1664 88.5592C72.6709 87.9936 73.2819 87.5328 73.9644 87.2033C74.647 86.8738 75.3878 86.6819 76.1445 86.6386C76.9012 86.5954 77.659 86.7016 78.3747 86.9512C79.0903 87.2009 79.7498 87.589 80.3155 88.0935L97.467 103.39L89.7817 112.005ZM76.4785 87.6664C76.3866 87.6664 76.2946 87.669 76.2023 87.6742C75.2674 87.7278 74.3695 88.0574 73.622 88.6214C72.8745 89.1853 72.3111 89.9582 72.0028 90.8424C71.6946 91.7266 71.6555 92.6823 71.8904 93.5887C72.1253 94.4951 72.6238 95.3115 73.3226 95.9346L89.6993 110.541L96.0017 103.475L79.625 88.8687C78.7611 88.0933 77.6408 87.665 76.48 87.6664H76.4785Z" fill="#292A2E"/>
<path d="M165.257 111.273L158.264 103.433L175.028 88.481C176.068 87.5537 177.433 87.0773 178.824 87.1568C180.215 87.2363 181.517 87.865 182.445 88.9047C183.372 89.9444 183.848 91.3098 183.769 92.7007C183.689 94.0916 183.06 95.3939 182.021 96.3212L165.257 111.273Z" fill="white"/>
<path d="M165.217 112.005L157.533 103.39L174.685 88.0935C175.827 87.0746 177.327 86.5513 178.856 86.6386C180.384 86.726 181.815 87.4168 182.834 88.5592C183.852 89.7016 184.376 91.202 184.288 92.7302C184.201 94.2584 183.51 95.6894 182.368 96.7083L165.217 112.005ZM158.998 103.474L165.301 110.54L181.677 95.9346C182.141 95.5208 182.519 95.0196 182.789 94.4598C183.06 93.8999 183.217 93.2923 183.253 92.6716C183.288 92.0509 183.201 91.4294 182.996 90.8424C182.791 90.2554 182.473 89.7145 182.059 89.2505C181.645 88.7865 181.144 88.4086 180.584 88.1384C180.024 87.8681 179.417 87.7107 178.796 87.6753C178.175 87.6398 177.554 87.727 176.967 87.9317C176.38 88.1365 175.839 88.4549 175.375 88.8687L158.998 103.474Z" fill="#292A2E"/>
<path d="M172.239 120.998C175.978 137.557 181.097 148.211 178.548 154.329C177.208 157.545 174.458 160.242 169.905 160.242C162.808 160.242 162.808 151.873 155.711 151.873C148.614 151.873 148.615 160.242 141.518 160.242C134.422 160.242 134.423 151.873 127.327 151.873C120.231 151.873 120.231 160.242 113.135 160.242C106.039 160.242 106.039 151.873 98.9432 151.873C91.8475 151.873 91.8482 160.242 84.7533 160.242C80.5406 160.242 78.1593 157.761 76.6491 154.894C73.0198 148.006 81.4783 132.849 84.7533 119.483C88.3717 104.714 88.0669 86.3179 88.5524 75.2228C89.4889 53.8263 105.913 36.4439 127.332 36.4439C148.75 36.4439 164.551 53.8626 166.111 75.2228C166.952 86.738 168.816 105.84 172.239 120.998Z" fill="white"/>
<path d="M169.905 160.765C166.114 160.765 164.231 158.544 162.409 156.394C160.665 154.337 159.017 152.394 155.711 152.394C152.405 152.394 150.759 154.337 149.014 156.394C147.192 158.542 145.309 160.765 141.518 160.765C137.728 160.765 135.845 158.544 134.024 156.394C132.28 154.337 130.632 152.394 127.327 152.394C124.022 152.394 122.375 154.337 120.63 156.394C118.808 158.542 116.925 160.765 113.135 160.765C109.344 160.765 107.46 158.544 105.642 156.397C103.898 154.339 102.251 152.397 98.9451 152.397C95.6396 152.397 93.9936 154.339 92.249 156.397C90.4281 158.545 88.545 160.768 84.7552 160.768C80.9855 160.768 78.1832 158.927 76.1879 155.14C73.6576 150.338 76.6966 141.847 79.9147 132.859C81.5127 128.394 83.1641 123.777 84.2473 119.362C87.1412 107.55 87.5075 93.6712 87.8015 82.5185C87.8708 79.8806 87.9365 77.3887 88.0336 75.2031C88.4978 64.6119 92.7089 54.7547 99.8929 47.4462C103.463 43.7872 107.732 40.8821 112.446 38.903C117.16 36.9239 122.223 35.911 127.335 35.9244C132.415 35.9124 137.444 36.9284 142.121 38.9112C146.797 40.894 151.024 43.8027 154.547 47.4621C161.565 54.6877 165.858 64.535 166.636 75.188C167.386 85.4599 169.178 105.055 172.753 120.886C173.965 126.256 175.322 130.999 176.52 135.184C179.019 143.922 180.826 150.236 179.034 154.534C178.061 156.861 175.585 160.765 169.905 160.765ZM155.711 151.35C159.502 151.35 161.385 153.571 163.207 155.721C164.952 157.778 166.599 159.721 169.905 159.721C174.979 159.721 177.195 156.218 178.065 154.129C179.716 150.169 177.949 144.004 175.51 135.47C174.31 131.271 172.947 126.514 171.729 121.115C168.139 105.217 166.341 85.5632 165.589 75.2626C163.994 53.4313 147.547 36.9685 127.331 36.9685C106.819 36.9685 90.0142 53.7822 89.0731 75.2472C88.9779 77.4235 88.9121 79.9108 88.841 82.544C88.5613 93.1556 88.1779 107.688 85.2573 119.61C84.163 124.077 82.5007 128.72 80.8938 133.21C77.7558 141.975 74.7919 150.256 77.1078 154.652C78.9051 158.062 81.4044 159.72 84.7494 159.72C88.0545 159.72 89.7009 157.777 91.4455 155.72C93.2664 153.571 95.1495 151.348 98.9393 151.348C102.729 151.348 104.613 153.57 106.434 155.72C108.178 157.777 109.825 159.72 113.131 159.72C116.436 159.72 118.084 157.776 119.828 155.72C121.65 153.571 123.533 151.348 127.323 151.348C131.113 151.348 132.997 153.57 134.818 155.72C136.562 157.777 138.209 159.72 141.514 159.72C144.82 159.72 146.468 157.776 148.212 155.72C150.037 153.573 151.92 151.35 155.711 151.35Z" fill="#292A2E"/>
<path d="M112.759 77.7248C115.133 77.7248 117.058 75.8003 117.058 73.4263C117.058 71.0523 115.133 69.1278 112.759 69.1278C110.385 69.1278 108.461 71.0523 108.461 73.4263C108.461 75.8003 110.385 77.7248 112.759 77.7248Z" fill="#292A2E"/>
<path d="M142.235 77.7248C144.609 77.7248 146.534 75.8003 146.534 73.4263C146.534 71.0523 144.609 69.1278 142.235 69.1278C139.861 69.1278 137.937 71.0523 137.937 73.4263C137.937 75.8003 139.861 77.7248 142.235 77.7248Z" fill="#292A2E"/>
<path d="M135.196 85.0278C135.444 85.0272 135.689 85.0819 135.914 85.188C136.138 85.294 136.336 85.4487 136.493 85.6408C136.65 85.8329 136.762 86.0576 136.821 86.2985C136.881 86.5395 136.885 86.7906 136.835 87.0336C135.914 91.3433 132.084 94.0523 127.499 94.0523C122.913 94.0523 119.083 91.3444 118.162 87.0336C118.112 86.7905 118.117 86.5394 118.176 86.2984C118.235 86.0575 118.347 85.8328 118.504 85.6407C118.662 85.4485 118.859 85.2938 119.084 85.1878C119.308 85.0818 119.553 85.0272 119.801 85.0278H135.196Z" fill="white"/>
<path d="M127.498 94.5753C122.558 94.5753 118.601 91.5885 117.65 87.1427C117.582 86.8261 117.587 86.4985 117.662 86.1838C117.738 85.8691 117.884 85.5755 118.088 85.3245C118.294 85.0686 118.555 84.8622 118.851 84.7206C119.148 84.579 119.472 84.5058 119.801 84.5064H135.197C135.526 84.5059 135.85 84.5791 136.147 84.7207C136.443 84.8623 136.704 85.0687 136.91 85.3245C137.114 85.5755 137.26 85.8692 137.335 86.1838C137.411 86.4985 137.415 86.8261 137.348 87.1427C136.395 91.5885 132.437 94.5753 127.498 94.5753ZM119.8 85.5508C119.628 85.5507 119.457 85.5892 119.301 85.6637C119.146 85.7381 119.009 85.8466 118.9 85.981C118.794 86.1111 118.719 86.2634 118.679 86.4266C118.64 86.5899 118.638 86.7599 118.673 86.9241C119.517 90.8748 123.064 93.5293 127.497 93.5293C131.931 93.5293 135.478 90.8748 136.323 86.9241C136.358 86.7598 136.355 86.5898 136.316 86.4265C136.276 86.2633 136.2 86.111 136.094 85.981C135.986 85.8465 135.849 85.7381 135.693 85.6637C135.538 85.5892 135.367 85.5506 135.195 85.5508H119.8Z" fill="#292A2E"/>
<path d="M228.54 203.952C205.337 234.372 168.712 254 127.502 254C86.2925 254 49.6669 234.372 26.4644 203.952C52.9511 193.987 88.4626 187.894 127.502 187.894C166.542 187.894 202.051 193.987 228.54 203.952Z" fill="#69E167"/>
<path d="M239.199 66.514L174.02 66.2355C174.02 55.35 180.152 53.207 186.67 51.4391C193.188 49.6713 196.12 37.7066 207.447 37.0257C214.136 36.6234 217.644 38.3448 220.549 40.5614C220.553 40.5653 220.553 40.5691 220.557 40.5691C227.835 48.4005 234.099 57.1174 239.199 66.514Z" fill="white"/>
<path d="M53.2772 147.397L2.16843 147.617C1.29543 142.281 0.76567 136.894 0.582397 131.49C11.7774 129.904 10.6324 121.007 24.0014 121.816C33.9199 122.411 36.4963 132.891 42.2021 134.438C47.9079 135.985 53.2772 137.867 53.2772 147.397Z" fill="white"/>
</g>
<defs>
<clipPath id="clip0_136_3416">
<rect width="254" height="254" fill="white" transform="translate(0.5)"/>
</clipPath>
</defs>
</svg>
