<svg width="554" height="305" viewBox="0 0 554 305" fill="none" xmlns="http://www.w3.org/2000/svg">
<g clip-path="url(#clip0_601_3973)">
<path d="M554 305H0C6.07065 289.52 17.2807 276.386 33.084 272.49C56.2012 266.799 80.6655 282.448 103.732 276.564C116.839 273.225 127.153 263.492 137.994 255.41C178.892 224.916 234.94 215.904 283.335 232.044C308.632 240.477 331.684 255.223 357.598 261.495C391.107 269.605 426.151 262.879 460.609 261.771C494.17 260.69 542.257 274.366 554 305Z" fill="#F3F5FD"/>
<path d="M539.886 305H461.241C455.472 300.395 455.075 290.02 461.053 285.391C465.662 281.821 472.63 282.775 476.962 286.489C476.152 283.724 476.136 280.788 476.915 278.015C478.324 273.021 481.455 267.947 486.236 265.927C498.436 260.78 507.105 271.566 508.842 277.596C511.963 273.003 518.954 270.575 523.339 273.667C528.894 277.584 528.644 283.758 524.213 288.19C530.117 287.09 534.565 287.94 538.661 292.335C541.777 295.682 542.257 301.383 539.886 305Z" fill="#8DDBE0"/>
<path d="M433.943 48.5235C433.943 48.5235 429.117 45.9644 430.195 32.8209L420.222 30.972C420.222 30.972 421.343 42.7554 416.298 46.4968L433.943 48.5235Z" fill="#E98862"/>
<g opacity="0.15">
<path d="M418.342 44.0331L426.626 37.6958L420.119 37.6284C419.931 39.8553 419.328 42.0275 418.342 44.0331Z" fill="black"/>
</g>
<path d="M435.856 27.7244C435.165 31.7123 432.989 35.488 429.472 36.7751C425.297 38.3043 422.204 38.4073 417.39 38.4073C410.82 38.4073 411.037 31.5563 410.853 24.6515C410.666 17.7193 411.219 10.284 413.815 7.86845C418.996 3.04662 434.209 6.10013 436.059 14.1646C437.013 18.3367 436.509 23.9294 435.856 27.7244Z" fill="#E98862"/>
<path d="M406.295 4.99848C406.295 1.7009 410.398 -3.7008 421.345 3.7501L421.356 3.75759C424.2 3.67796 427.042 3.98878 429.801 4.68139C434.807 6.17943 441.084 10.3758 439.476 20.5513C437.678 31.9077 433.026 34.9394 430.682 36.3326C430.085 36.6871 429.94 36.395 429.733 35.7352C429.083 33.2833 428.618 30.786 428.341 28.2644C427.932 25.8103 427.747 23.3242 427.787 20.8366C427.787 19.7342 427.781 15.7182 422.311 15.672C419.235 15.6471 420.385 15.7694 417.102 15.7694C416.634 15.7694 416.221 15.7482 415.84 15.7145H415.836C404.498 15.7132 406.295 8.29542 406.295 4.99848Z" fill="#0F1011"/>
<path d="M420.237 24.6528C420.736 24.6528 421.141 24.2479 421.141 23.7484C421.141 23.2489 420.736 22.8439 420.237 22.8439C419.737 22.8439 419.332 23.2489 419.332 23.7484C419.332 24.2479 419.737 24.6528 420.237 24.6528Z" fill="#0F1011"/>
<path d="M413.102 24.068C413.601 24.068 414.006 23.6631 414.006 23.1635C414.006 22.664 413.601 22.2591 413.102 22.2591C412.602 22.2591 412.197 22.664 412.197 23.1635C412.197 23.6631 412.602 24.068 413.102 24.068Z" fill="#0F1011"/>
<path d="M411.535 21.236C411.425 21.2326 411.32 21.1867 411.244 21.108C411.167 21.0293 411.123 20.9239 411.123 20.814C411.122 20.704 411.164 20.5981 411.24 20.5184C411.315 20.4387 411.419 20.3914 411.529 20.3865L413.925 20.3566C414.036 20.3604 414.142 20.4055 414.221 20.4831C414.301 20.5607 414.349 20.6651 414.355 20.776C414.356 20.8318 414.346 20.8872 414.325 20.939C414.304 20.9908 414.274 21.0381 414.235 21.078C414.196 21.118 414.149 21.1498 414.098 21.1718C414.047 21.1938 413.991 21.2054 413.936 21.2061L411.54 21.236H411.535Z" fill="#0F1011"/>
<path d="M422.187 22.1099C422.153 22.1099 422.119 22.1059 422.087 22.098L419.725 21.5294C419.617 21.501 419.525 21.4318 419.468 21.3364C419.412 21.241 419.394 21.1272 419.42 21.0192C419.446 20.9112 419.513 20.8176 419.607 20.7585C419.701 20.6994 419.815 20.6795 419.923 20.703L422.285 21.2716C422.386 21.296 422.475 21.3566 422.534 21.4419C422.594 21.5271 422.62 21.6313 422.608 21.7345C422.595 21.8377 422.546 21.9329 422.468 22.0021C422.391 22.0713 422.29 22.1096 422.187 22.1099Z" fill="#0F1011"/>
<path d="M424.942 25.9617C424.874 26.967 425.204 27.9585 425.862 28.7219C426.519 29.4854 427.451 29.9593 428.455 30.0413C429.459 30.1234 430.455 29.8068 431.228 29.1602C432.001 28.5136 432.488 27.5888 432.584 26.5859C432.634 26.0824 432.582 25.5741 432.431 25.0911C432.28 24.6081 432.034 24.1604 431.707 23.7746C431.38 23.3888 430.978 23.0728 430.526 22.8455C430.074 22.6182 429.581 22.4841 429.076 22.4513C426.343 22.3645 425.114 23.8513 424.942 25.9617Z" fill="#E98862"/>
<g opacity="0.15">
<path d="M416.222 28.765C416.297 28.765 416.369 28.7382 416.426 28.6895C416.482 28.6407 416.52 28.5732 416.531 28.4993C416.542 28.4253 416.526 28.3499 416.486 28.2866C416.446 28.2233 416.385 28.1764 416.314 28.1545L414.474 27.5896L415.761 24.7246C415.778 24.6871 415.788 24.6466 415.79 24.6053C415.791 24.564 415.785 24.5228 415.77 24.4841C415.756 24.4454 415.734 24.41 415.705 24.3798C415.677 24.3496 415.643 24.3254 415.606 24.3084C415.568 24.2915 415.527 24.2822 415.486 24.2811C415.445 24.28 415.404 24.2871 415.365 24.302C415.327 24.3169 415.291 24.3393 415.262 24.368C415.232 24.3966 415.208 24.4308 415.191 24.4687L413.76 27.6564C413.742 27.6968 413.733 27.7405 413.733 27.7848C413.733 27.829 413.742 27.8728 413.761 27.9131C413.779 27.9534 413.805 27.9894 413.839 28.0186C413.872 28.0479 413.911 28.0697 413.953 28.0827L416.13 28.7512C416.16 28.7604 416.191 28.765 416.222 28.765Z" fill="black"/>
</g>
<path d="M419.818 30.8716C419.818 30.8716 416.48 31.2236 414.139 30.4059C414.139 30.4059 414.157 32.6049 416.799 32.8215C419.44 33.0381 419.818 30.8716 419.818 30.8716Z" fill="white"/>
<path d="M203.595 23.9793C203.87 23.2771 204 22.6685 203.711 22.5062C202.41 21.7759 195.707 28.8105 194.511 30.0083L198.256 28.3761L195.947 30.6856L202.196 33.8065C202.196 33.8065 216.921 26.4767 214.031 21.2941C212.788 19.0663 207.754 21.4545 203.595 23.9793Z" fill="#E98862"/>
<path d="M155.73 298.247L142.713 296.699C143.299 291.772 143.962 285.854 144.007 284.884C144.004 284.946 144.004 284.997 144.004 285.037H157.112C157.11 285.43 157.11 286.626 155.73 298.247Z" fill="#E98862"/>
<path d="M103.501 299.814L90.3931 299.771C90.3931 299.771 90.4368 286.236 90.4368 285.037H103.544C103.544 286.24 103.501 299.814 103.501 299.814Z" fill="#E98862"/>
<path d="M137.473 294.107L160.564 293.714C159.479 266.23 159.413 237.401 159.075 209.85C154.568 180.155 152.194 147.547 146.632 118.065L146.465 118.114L145.978 114.787L98.4936 111.854C98.4936 111.854 89.8364 250.206 87.0157 293.361L110.028 295.305C114.174 252.994 120.59 191.343 124.537 146.895C129.069 168.535 132.152 190.942 136.093 212.397C136.88 239.256 137.546 267.331 137.473 294.107Z" fill="#262626"/>
<path d="M119.435 304.883C119.787 304.882 120.136 304.807 120.458 304.665C120.781 304.523 121.07 304.315 121.309 304.056C121.548 303.797 121.731 303.491 121.846 303.158C121.961 302.825 122.006 302.471 121.979 302.12C121.941 301.633 121.765 301.167 121.471 300.776C121.177 300.386 120.777 300.088 120.319 299.917L105.064 294.807C104.768 294.709 104.455 294.676 104.145 294.711C103.836 294.745 103.538 294.846 103.271 295.006C101.174 296.462 98.6646 297.206 96.113 297.128C94.1255 296.987 92.2177 296.29 90.6072 295.117C90.4657 295.001 90.2941 294.928 90.1123 294.905C89.9306 294.883 89.7463 294.913 89.5809 294.991C89.4156 295.07 89.2759 295.194 89.1784 295.349C89.0808 295.504 89.0293 295.683 89.0299 295.866V303.327C89.0299 303.547 89.0734 303.765 89.1578 303.968C89.2422 304.171 89.366 304.356 89.5219 304.511C89.6779 304.666 89.8629 304.789 90.0665 304.873C90.2701 304.956 90.4882 304.999 90.7083 304.998L119.435 304.883Z" fill="#ABE2AB"/>
<path d="M171.698 304.883C172.051 304.882 172.399 304.807 172.722 304.665C173.044 304.523 173.334 304.315 173.573 304.056C173.811 303.797 173.994 303.491 174.11 303.158C174.225 302.825 174.27 302.471 174.243 302.12C174.205 301.633 174.029 301.167 173.735 300.777C173.441 300.386 173.041 300.088 172.583 299.917L157.327 294.807C157.031 294.709 156.718 294.676 156.409 294.711C156.1 294.745 155.801 294.846 155.534 295.006C153.437 296.462 150.928 297.206 148.376 297.128C146.389 296.987 144.481 296.29 142.871 295.117C142.73 295.001 142.558 294.928 142.376 294.905C142.195 294.883 142.01 294.913 141.845 294.991C141.68 295.07 141.54 295.194 141.442 295.349C141.345 295.504 141.293 295.683 141.294 295.866V303.327C141.294 303.547 141.337 303.765 141.422 303.968C141.506 304.171 141.63 304.355 141.786 304.511C141.942 304.666 142.127 304.789 142.33 304.873C142.534 304.956 142.752 304.999 142.972 304.998L171.698 304.883Z" fill="#ABE2AB"/>
<path d="M114.009 48.4112C114.009 48.4112 118.835 45.852 117.757 32.7092L127.729 30.8604C127.729 30.8604 126.605 42.6437 131.653 46.3851L114.009 48.4112Z" fill="#E98862"/>
<g opacity="0.15">
<path d="M129.61 43.9214L121.326 37.5835L127.832 37.5161C128.021 39.7433 128.624 41.9157 129.61 43.9214Z" fill="black"/>
</g>
<path d="M112.1 27.6128C112.791 31.6007 114.967 35.3764 118.484 36.6634C122.318 38.1849 126.466 38.7452 130.566 38.2957C141.483 37.4006 139.323 12.5793 134.14 7.7568C128.957 2.93434 113.746 5.99222 111.896 14.0542C110.939 18.2263 111.442 23.8171 112.1 27.6128Z" fill="#E98862"/>
<path d="M137.74 8.61377C137.414 8.09686 136.958 7.67489 136.417 7.39037C131.569 4.75444 122.585 3.8425 118.27 5.13332C113.265 6.63136 106.988 10.8278 108.596 21.0032C108.664 21.432 108.737 21.8446 108.813 22.2516C107.232 21.9814 105.607 22.1515 104.116 22.7433C102.626 23.3352 101.327 24.3259 100.362 25.6069C99.3964 26.8879 98.8025 28.4099 98.6448 30.0061C98.4871 31.6022 98.7717 33.211 99.4675 34.6562C100.163 36.1013 101.243 37.3271 102.589 38.1992C103.935 39.0713 105.496 39.5561 107.099 39.6005C108.702 39.6449 110.287 39.2472 111.679 38.4509C113.071 37.6546 114.217 36.4905 114.992 35.0861C115.735 35.7279 116.537 36.297 117.388 36.7857C117.985 37.1409 118.13 36.8519 118.337 36.1884C119.06 33.8727 119.773 24.7115 119.204 18.0589L130.968 17.6526L133.017 11.8208L134.697 17.6526H138.703C139.24 14.4917 139.795 10.9102 137.74 8.61377Z" fill="#0F1011"/>
<path d="M127.715 24.5411C128.214 24.5411 128.619 24.1362 128.619 23.6367C128.619 23.1372 128.214 22.7322 127.715 22.7322C127.215 22.7322 126.81 23.1372 126.81 23.6367C126.81 24.1362 127.215 24.5411 127.715 24.5411Z" fill="#0F1011"/>
<path d="M134.85 23.9562C135.35 23.9562 135.755 23.5513 135.755 23.0518C135.755 22.5523 135.35 22.1473 134.85 22.1473C134.351 22.1473 133.946 22.5523 133.946 23.0518C133.946 23.5513 134.351 23.9562 134.85 23.9562Z" fill="#0F1011"/>
<path d="M136.417 21.1237H136.412L134.016 21.0944C133.904 21.0936 133.796 21.0481 133.717 20.9679C133.637 20.8876 133.593 20.7792 133.594 20.6665C133.595 20.5537 133.64 20.4459 133.72 20.3667C133.801 20.2875 133.909 20.2435 134.022 20.2442H134.027L136.422 20.2742C136.532 20.279 136.636 20.3263 136.712 20.406C136.787 20.4857 136.829 20.5917 136.829 20.7016C136.828 20.8116 136.785 20.917 136.708 20.9957C136.631 21.0744 136.527 21.1203 136.417 21.1237Z" fill="#0F1011"/>
<path d="M125.762 21.9982C125.658 21.9979 125.558 21.9596 125.48 21.8904C125.403 21.8212 125.353 21.726 125.341 21.6228C125.329 21.5196 125.355 21.4155 125.415 21.3302C125.474 21.2449 125.563 21.1843 125.664 21.1599L128.026 20.5913C128.135 20.5678 128.248 20.5877 128.342 20.6468C128.436 20.7059 128.503 20.7995 128.529 20.9075C128.555 21.0155 128.538 21.1293 128.481 21.2247C128.424 21.3201 128.332 21.3893 128.225 21.4177L125.862 21.9863C125.829 21.9943 125.796 21.9983 125.762 21.9982Z" fill="#0F1011"/>
<path d="M123.01 25.85C123.086 26.86 122.76 27.8591 122.102 28.6291C121.444 29.3992 120.508 29.8777 119.499 29.9601C118.489 30.0426 117.488 29.7223 116.714 29.0691C115.94 28.416 115.456 27.4832 115.367 26.4742C115.317 25.9707 115.369 25.4623 115.52 24.9793C115.671 24.4962 115.917 24.0485 116.244 23.6627C116.572 23.2769 116.974 22.9609 117.426 22.7336C117.878 22.5063 118.371 22.3723 118.876 22.3396C121.608 22.2528 122.836 23.7397 123.01 25.85Z" fill="#E98862"/>
<g opacity="0.15">
<path d="M131.73 28.6532C131.655 28.6533 131.583 28.6265 131.526 28.5777C131.469 28.529 131.432 28.4615 131.421 28.3875C131.41 28.3136 131.426 28.2381 131.466 28.1749C131.505 28.1116 131.567 28.0647 131.638 28.0428L133.478 27.4779L132.191 24.6123C132.172 24.5747 132.162 24.5338 132.159 24.492C132.157 24.4503 132.164 24.4085 132.178 24.3692C132.192 24.3299 132.214 24.2939 132.243 24.2633C132.271 24.2327 132.305 24.2081 132.343 24.191C132.382 24.1739 132.423 24.1646 132.465 24.1637C132.506 24.1628 132.548 24.1703 132.587 24.1858C132.626 24.2013 132.661 24.2244 132.691 24.2538C132.72 24.2832 132.744 24.3183 132.76 24.357L134.192 27.5447C134.21 27.585 134.219 27.6288 134.219 27.673C134.219 27.7173 134.21 27.761 134.191 27.8014C134.173 27.8417 134.146 27.8776 134.113 27.9069C134.08 27.9361 134.041 27.958 133.999 27.971L131.824 28.6395C131.794 28.6489 131.762 28.6535 131.73 28.6532Z" fill="black"/>
</g>
<path d="M128.133 30.7599C128.133 30.7599 131.471 31.1119 133.813 30.2943C133.813 30.2943 133.795 32.4933 131.153 32.7098C128.511 32.9264 128.133 30.7599 128.133 30.7599Z" fill="white"/>
<path d="M195.572 25.1279L172.228 57.5125L141.614 45.9026C139.752 45.24 137.797 44.8772 135.822 44.8278C135.429 44.8091 134.799 44.7966 133.987 44.7841C133.825 48.2171 112.566 48.2046 112.116 44.7029C106.112 44.7092 101.187 46.5505 98.3344 49.4031C88.5038 59.234 100.569 75.9871 100.569 89.095C100.569 102.203 94.6393 108.083 95.0763 114.811C95.7628 125.385 147.151 122.888 149.765 116.877C152.462 110.686 146.988 106.866 147.232 86.6045C147.316 79.2535 149.004 70.7764 149.336 63.3848L172.283 72.0891C173.683 72.6204 175.22 72.6749 176.654 72.244C178.089 71.8131 179.341 70.921 180.216 69.7059L206.612 33.0862L195.572 25.1279Z" fill="#69E167"/>
<path d="M133.986 44.7834C133.825 48.2164 131.958 53.2661 126.197 53.6468C118.519 54.1524 112.565 48.2039 112.115 44.7023H112.135C119.693 44.7023 129.577 44.7148 133.986 44.7834Z" fill="#E98862"/>
<path d="M113.073 107.782L77.1146 99.2786C76.0582 99.0296 75.0767 98.5314 74.252 97.8258C73.4274 97.1201 72.7836 96.2274 72.3742 95.2222C71.9649 94.217 71.8021 93.1284 71.8992 92.0474C71.9963 90.9664 72.3507 89.9243 72.9326 89.0082L97.4861 50.3468L108.975 57.6429L89.5498 88.2342L116.202 94.5385L113.073 107.782Z" fill="#69E167"/>
<path d="M392.263 298.247C390.881 286.626 390.881 285.43 390.881 285.037H403.988C403.988 284.997 403.988 284.946 403.988 284.884C404.035 285.854 404.696 291.772 405.282 296.699L392.263 298.247Z" fill="#E98862"/>
<path d="M444.49 299.814C444.49 299.814 444.446 286.239 444.446 285.037H457.554C457.554 286.236 457.598 299.771 457.598 299.771L444.49 299.814Z" fill="#E98862"/>
<path d="M460.976 293.363C458.173 250.472 449.498 111.857 449.498 111.857L402.014 114.788L401.526 118.115L401.359 118.065C395.791 147.581 393.423 180.179 388.909 209.904C388.591 237.431 388.504 266.264 387.427 293.715L410.521 294.108C410.447 266.988 411.753 238.591 412.554 211.417C412.554 211.417 417.624 176.066 423.497 147.341C427.459 191.88 433.809 252.878 437.967 295.308L460.976 293.363Z" fill="#262626"/>
<path d="M428.556 304.883C428.204 304.882 427.855 304.807 427.533 304.665C427.211 304.523 426.921 304.315 426.682 304.056C426.443 303.797 426.261 303.491 426.145 303.158C426.03 302.825 425.985 302.471 426.012 302.12C426.05 301.633 426.226 301.167 426.52 300.776C426.814 300.386 427.213 300.088 427.671 299.917L442.928 294.807C443.223 294.709 443.536 294.676 443.846 294.711C444.155 294.745 444.453 294.846 444.72 295.006C446.818 296.462 449.327 297.206 451.878 297.128C453.866 296.987 455.773 296.29 457.383 295.117C457.525 295.001 457.697 294.928 457.878 294.905C458.06 294.883 458.244 294.913 458.41 294.992C458.575 295.07 458.715 295.194 458.812 295.349C458.91 295.504 458.962 295.683 458.961 295.866V303.327C458.961 303.547 458.918 303.765 458.833 303.968C458.749 304.171 458.625 304.356 458.469 304.511C458.313 304.666 458.128 304.789 457.925 304.873C457.721 304.956 457.503 304.999 457.283 304.998L428.556 304.883Z" fill="#ABE2AB"/>
<path d="M376.292 304.883C375.94 304.882 375.591 304.807 375.269 304.665C374.947 304.523 374.657 304.315 374.418 304.056C374.179 303.797 373.997 303.491 373.881 303.158C373.766 302.825 373.721 302.471 373.748 302.12C373.786 301.633 373.962 301.167 374.256 300.776C374.55 300.386 374.95 300.088 375.408 299.917L390.664 294.807C390.959 294.709 391.273 294.676 391.582 294.711C391.891 294.745 392.19 294.846 392.457 295.006C394.554 296.462 397.063 297.206 399.614 297.128C401.602 296.987 403.51 296.291 405.12 295.117C405.261 295.001 405.433 294.928 405.615 294.905C405.797 294.883 405.981 294.913 406.146 294.991C406.312 295.07 406.451 295.194 406.549 295.349C406.646 295.504 406.698 295.683 406.697 295.866V303.327C406.697 303.547 406.654 303.765 406.569 303.968C406.485 304.171 406.361 304.356 406.205 304.511C406.049 304.666 405.864 304.789 405.661 304.873C405.457 304.957 405.239 304.999 405.019 304.998L376.292 304.883Z" fill="#ABE2AB"/>
<path d="M449.657 49.4024C446.804 46.5499 441.88 44.7085 435.875 44.7023C435.426 48.2039 414.167 48.2164 414.004 44.7834C413.193 44.7959 412.563 44.8084 412.169 44.8271C404.772 45.1461 401.179 48.3594 399.624 53.1462L383.403 87.8672L345.453 98.1974L349.027 111.33L390.022 100.171C390.976 99.9116 391.861 99.4475 392.617 98.8109C393.373 98.1744 393.982 97.3808 394.4 96.4853L400.62 83.1708C400.696 84.3362 400.748 85.4803 400.76 86.6038C401.004 106.865 395.53 110.685 398.227 116.877C400.841 122.888 452.229 125.384 452.916 114.811C453.352 108.082 447.423 102.208 447.423 89.0943C447.423 75.9802 459.487 59.2352 449.657 49.4024Z" fill="#69E167"/>
<path d="M414.004 44.7834C414.167 48.2164 416.033 53.2661 421.794 53.6468C429.471 54.1524 435.426 48.2039 435.875 44.7023H435.856C428.298 44.7023 418.411 44.7148 414.004 44.7834Z" fill="#E98862"/>
<path d="M125.742 97.4478C126.781 97.1219 127.858 96.9251 128.945 96.8617C131.046 96.8617 131.842 98.992 129.83 99.756C128.217 100.345 126.542 100.743 124.837 100.942" fill="#E98862"/>
<path d="M346.861 97.3192C347.845 97.011 348.864 96.8249 349.893 96.765C351.88 96.765 352.633 98.7798 350.729 99.5026C349.205 100.06 347.62 100.437 346.008 100.626" fill="#E98862"/>
<path d="M471.203 98.9233H74.0699V216.722H471.203V98.9233Z" fill="#ABE2AB"/>
<path d="M436.652 101.077C435.006 101.462 425.492 103.449 425.427 104.937C425.387 105.83 429.721 105.859 429.721 105.859" fill="#E98862"/>
<path d="M435.825 109.607C435.825 109.607 421.832 118.253 418.953 113.064C417.44 110.337 424.792 106.427 429.528 104.278L436.469 102.652" fill="#E98862"/>
<path d="M437.148 112.24L432.485 99.4558L454.437 91.4431L440.273 59.5535L452.711 54.0282L469.832 92.576C470.211 93.4283 470.41 94.3494 470.418 95.2821C470.426 96.2147 470.242 97.139 469.877 97.9976C469.513 98.8561 468.976 99.6306 468.299 100.273C467.623 100.915 466.822 101.411 465.946 101.731L437.148 112.24Z" fill="#69E167"/>
<path d="M337.47 99.5026C337.895 101.318 339.434 101.67 343.912 101.67C348.308 101.67 349.474 100.11 349.474 97.6694C349.474 95.2288 346.592 94.9286 343.335 94.9286C337.503 94.9286 336.963 97.3429 337.47 99.5026Z" fill="#E98862"/>
<path d="M115.813 99.756C116.263 101.675 117.889 102.047 122.623 102.047C127.27 102.047 128.502 100.4 128.502 97.8179C128.502 95.2357 125.456 94.9199 122.014 94.9199C115.849 94.9199 115.277 97.4728 115.813 99.756Z" fill="#E98862"/>
<path d="M53.2464 305H19.3492C13.4558 297.249 3.12396 281.614 9.79942 274.936C12.8366 271.906 16.1753 274.789 19.2824 279.959C18.2163 269.83 19.2824 260.15 26.3317 257.323C32.7494 254.756 35.6187 262.514 36.7266 272.923C39.883 267.003 44.0425 262.837 49.464 263.166C57.2218 263.63 55.3493 273.975 50.8109 285.43C54.2551 282.813 57.8534 281.523 61.3594 282.673C68.7058 285.079 61.8462 295.383 53.2464 305Z" fill="#ABE2AB"/>
<path d="M113.356 179.016H104.181V143.382H92.4341V135.747H125.105V143.382H113.356V179.016Z" fill="white"/>
<path d="M167.214 179.016H158.073V160.34H140.937V179.016H131.762V135.747H140.937V152.704H158.071V135.747H167.214V179.016Z" fill="white"/>
<path d="M204.624 179.016L201.486 168.717H185.713L182.576 179.016H172.692L187.962 135.573H199.178L214.508 179.016H204.624ZM199.297 161.02C196.396 151.688 194.763 146.411 194.398 145.187C194.033 143.964 193.771 142.997 193.614 142.287C192.963 144.813 191.098 151.058 188.021 161.02H199.297Z" fill="white"/>
<path d="M258.336 179.016H246.676L227.855 146.284H227.589C227.963 152.066 228.15 156.19 228.15 158.655V179.016H219.953V135.747H231.524L250.316 168.155H250.524C250.227 162.532 250.079 158.557 250.08 156.229V135.747H258.336V179.016Z" fill="white"/>
<path d="M304.032 179.016H293.614L282.28 160.786L278.403 163.568V179.016H269.228V135.747H278.403V155.547L282.014 150.457L293.733 135.747H303.913L288.82 154.895L304.032 179.016Z" fill="white"/>
<path d="M341.093 153.563L350.12 135.747H360.004L345.648 162.175V179.016H336.535V162.475L322.179 135.751H332.123L341.093 153.563Z" fill="white"/>
<path d="M404.72 157.322C404.72 164.483 402.945 169.988 399.394 173.836C395.843 177.683 390.752 179.607 384.123 179.606C377.494 179.606 372.404 177.683 368.853 173.836C365.301 169.989 363.526 164.464 363.526 157.262C363.526 150.061 365.306 144.561 368.867 140.763C372.428 136.965 377.533 135.066 384.182 135.066C390.831 135.066 395.916 136.98 399.438 140.808C402.959 144.636 404.72 150.141 404.72 157.322ZM373.144 157.322C373.144 162.156 374.061 165.797 375.896 168.245C377.73 170.692 380.473 171.916 384.123 171.915C391.442 171.915 395.102 167.052 395.103 157.325C395.103 147.578 391.462 142.705 384.18 142.705C380.53 142.705 377.778 143.933 375.923 146.388C374.069 148.843 373.143 152.487 373.144 157.322Z" fill="white"/>
<path d="M448.904 135.747V163.744C448.969 166.689 448.227 169.595 446.758 172.148C445.301 174.579 443.139 176.51 440.559 177.682C437.546 179.029 434.269 179.687 430.97 179.606C425.406 179.606 421.086 178.181 418.008 175.329C414.931 172.478 413.391 168.576 413.39 163.625V135.747H422.536V162.234C422.536 165.569 423.207 168.015 424.548 169.574C425.89 171.132 428.109 171.911 431.207 171.912C434.205 171.912 436.381 171.127 437.732 169.559C439.084 167.99 439.76 165.528 439.76 162.175V135.747H448.904Z" fill="white"/>
</g>
<defs>
<clipPath id="clip0_601_3973">
<rect width="554" height="305" fill="white"/>
</clipPath>
</defs>
</svg>
