<svg width="24" height="24" viewBox="0 0 24 24" fill="none" xmlns="http://www.w3.org/2000/svg">
<path d="M23.4742 11.4375C21.1132 7.34985 16.7168 4.81055 12 4.81055C7.28324 4.81055 2.88687 7.34985 0.525911 11.4375C0.324859 11.7854 0.324859 12.2146 0.525911 12.5625C2.88687 16.6502 7.28324 19.1895 12 19.1895C16.7168 19.1895 21.1132 16.6502 23.4742 12.5625C23.6752 12.2146 23.6752 11.7854 23.4742 11.4375ZM12 16.9395C8.3057 16.9395 4.84757 15.0626 2.82242 12C4.84757 8.93738 8.3057 7.06055 12 7.06055C15.6944 7.06055 19.1525 8.93738 21.1776 12C19.1525 15.0626 15.6944 16.9395 12 16.9395Z" fill="#767676"/>
<path d="M12 7.83472C9.70312 7.83472 7.83472 9.70312 7.83472 12C7.83472 14.2969 9.70312 16.1653 12 16.1653C14.2969 16.1653 16.1653 14.2969 16.1653 12C16.1653 9.70312 14.2969 7.83472 12 7.83472ZM12 13.9153C10.9438 13.9153 10.0847 13.0561 10.0847 12C10.0847 10.9438 10.9438 10.0847 12 10.0847C13.0561 10.0847 13.9153 10.9438 13.9153 12C13.9153 13.0561 13.0561 13.9153 12 13.9153Z" fill="#767676"/>
</svg>
