<svg width="214" height="81" viewBox="0 0 214 81" fill="none" xmlns="http://www.w3.org/2000/svg">
<g clip-path="url(#clip0_106_3584)">
<path d="M3.255 51.5V33.613C3.255 32.001 3.72 30.7197 4.65 29.769C5.60067 28.7977 6.944 28.312 8.68 28.312C9.32067 28.312 9.93033 28.3947 10.509 28.56C11.1083 28.7047 11.6147 28.9423 12.028 29.273L11.129 31.536C10.819 31.288 10.4677 31.102 10.075 30.978C9.68233 30.8333 9.269 30.761 8.835 30.761C7.967 30.761 7.30567 31.009 6.851 31.505C6.39633 31.9803 6.169 32.6933 6.169 33.644V35.845L6.231 37.209V51.5H3.255ZM0.465 37.519V35.07H10.943V37.519H0.465ZM13.764 51.5V35.07H16.74V51.5H13.764ZM15.252 31.908C14.6733 31.908 14.1877 31.722 13.795 31.35C13.423 30.978 13.237 30.5233 13.237 29.986C13.237 29.428 13.423 28.963 13.795 28.591C14.1877 28.219 14.6733 28.033 15.252 28.033C15.8307 28.033 16.306 28.219 16.678 28.591C17.0707 28.9423 17.267 29.3867 17.267 29.924C17.267 30.482 17.081 30.9573 16.709 31.35C16.337 31.722 15.8513 31.908 15.252 31.908ZM26.7169 51.5L19.5249 35.07H22.6249L29.0109 49.95H27.5229L34.0329 35.07H36.9469L29.7549 51.5H26.7169ZM46.5862 51.686C44.8296 51.686 43.2796 51.3243 41.9362 50.601C40.6136 49.8777 39.5802 48.8857 38.8362 47.625C38.1129 46.3643 37.7512 44.9177 37.7512 43.285C37.7512 41.6523 38.1026 40.2057 38.8052 38.945C39.5286 37.6843 40.5102 36.7027 41.7502 36C43.0109 35.2767 44.4266 34.915 45.9972 34.915C47.5886 34.915 48.9939 35.2663 50.2132 35.969C51.4326 36.6717 52.3832 37.6637 53.0652 38.945C53.7679 40.2057 54.1192 41.6833 54.1192 43.378C54.1192 43.502 54.1089 43.6467 54.0882 43.812C54.0882 43.9773 54.0779 44.1323 54.0572 44.277H40.0762V42.138H52.5072L51.2982 42.882C51.3189 41.828 51.1019 40.8877 50.6472 40.061C50.1926 39.2343 49.5622 38.5937 48.7562 38.139C47.9709 37.6637 47.0512 37.426 45.9972 37.426C44.9639 37.426 44.0442 37.6637 43.2382 38.139C42.4322 38.5937 41.8019 39.2447 41.3472 40.092C40.8926 40.9187 40.6652 41.8693 40.6652 42.944V43.44C40.6652 44.5353 40.9132 45.517 41.4092 46.385C41.9259 47.2323 42.6389 47.8937 43.5482 48.369C44.4576 48.8443 45.5012 49.082 46.6792 49.082C47.6506 49.082 48.5289 48.9167 49.3142 48.586C50.1202 48.2553 50.8229 47.7593 51.4222 47.098L53.0652 49.02C52.3212 49.888 51.3912 50.5493 50.2752 51.004C49.1799 51.4587 47.9502 51.686 46.5862 51.686Z" fill="black"/>
<g clip-path="url(#clip1_106_3584)">
<path d="M85.1833 12.2958L71.4488 26.0303C70.979 26.5001 70.979 27.2618 71.4488 27.7316L72.5759 28.8587C73.0457 29.3285 73.8074 29.3285 74.2772 28.8587L88.0118 15.1242C88.4816 14.6544 88.4816 13.8927 88.0118 13.4229L86.8846 12.2958C86.4148 11.826 85.6531 11.826 85.1833 12.2958Z" fill="black"/>
<path d="M122.917 10.6643L121.79 11.7914C121.32 12.2612 121.32 13.0229 121.79 13.4927L135.525 27.2273C135.994 27.6971 136.756 27.6971 137.226 27.2273L138.353 26.1002C138.823 25.6304 138.823 24.8687 138.353 24.3988L124.619 10.6643C124.149 10.1945 123.387 10.1945 122.917 10.6643Z" fill="black"/>
<path d="M105.521 46.8008V29.8008C105.521 28.9723 104.849 28.3008 104.021 28.3008C103.192 28.3008 102.521 28.9723 102.521 29.8008V46.8008C102.521 47.6292 103.192 48.3008 104.021 48.3008C104.849 48.3008 105.521 47.6292 105.521 46.8008Z" fill="black"/>
<path d="M118.021 45.3008H104.021C103.192 45.3008 102.521 45.9723 102.521 46.8008C102.521 47.6292 103.192 48.3008 104.021 48.3008H118.021C118.849 48.3008 119.521 47.6292 119.521 46.8008C119.521 45.9723 118.849 45.3008 118.021 45.3008Z" fill="black"/>
<path d="M114.943 65.8156C115.244 65.8024 115.543 65.863 115.818 65.9928C116.091 66.1176 116.316 66.3389 116.455 66.6196C116.637 66.9602 116.734 67.3444 116.738 67.7362L116.851 70.3658L116.076 70.4177L115.958 67.8616C115.967 67.5016 115.851 67.1509 115.632 66.877C115.521 66.7638 115.388 66.6783 115.242 66.6268C115.096 66.5753 114.941 66.559 114.789 66.5791C114.552 66.5789 114.319 66.6509 114.119 66.7865C113.931 66.9156 113.782 67.1012 113.692 67.3201C113.595 67.5873 113.556 67.8748 113.579 68.1606L113.674 70.5304L112.889 70.5692L112.782 68.0262C112.798 67.6591 112.677 67.3003 112.445 67.0285C112.336 66.916 112.204 66.8319 112.06 66.7825C111.915 66.7331 111.762 66.7198 111.612 66.7437C111.381 66.7434 111.153 66.8113 110.955 66.9398C110.757 67.0663 110.603 67.2574 110.516 67.4847C110.412 67.7455 110.369 68.0296 110.391 68.312L110.498 70.695L109.712 70.7337L109.52 66.1786L110.272 66.125L110.328 67.3597L110.126 67.1106C110.246 66.7999 110.457 66.5395 110.728 66.3688C111.021 66.1849 111.352 66.0831 111.692 66.0729C112.067 66.0459 112.441 66.1386 112.767 66.3393C113.08 66.5649 113.303 66.9063 113.394 67.2975L113.08 67.1752C113.195 66.8129 113.418 66.5011 113.715 66.2882C114.072 66.0047 114.499 65.8403 114.943 65.8156Z" fill="black"/>
<path d="M119.293 69.2965L117.773 64.9848L118.506 64.696L120.016 68.9945L119.293 69.2965ZM117.904 64.0596C117.839 64.0922 117.768 64.1086 117.696 64.1074C117.624 64.1062 117.554 64.0875 117.49 64.0527C117.428 64.0238 117.373 63.9805 117.329 63.9261C117.285 63.8716 117.252 63.8074 117.234 63.738C117.208 63.6736 117.196 63.6037 117.199 63.5337C117.202 63.4636 117.219 63.395 117.25 63.3331C117.28 63.2655 117.322 63.2054 117.375 63.1564C117.428 63.1075 117.49 63.0708 117.556 63.0488C117.622 63.0195 117.693 63.0051 117.764 63.0062C117.835 63.0074 117.905 63.0242 117.97 63.0556C118.09 63.1044 118.188 63.2001 118.244 63.3232C118.3 63.4464 118.31 63.5877 118.272 63.7184C118.242 63.8039 118.193 63.8801 118.129 63.9398C118.064 63.9994 117.987 64.0407 117.904 64.0596Z" fill="black"/>
<path d="M121.654 62.8804C121.92 62.6882 122.224 62.5639 122.542 62.5171C122.843 62.4776 123.149 62.5395 123.416 62.6944C123.731 62.8888 123.998 63.1625 124.192 63.4917L125.553 65.6993L124.913 66.1551L123.58 64.0358C123.501 63.8744 123.391 63.7322 123.258 63.6184C123.125 63.5045 122.971 63.4213 122.807 63.3741C122.652 63.3418 122.492 63.3454 122.339 63.3847C122.185 63.424 122.041 63.498 121.917 63.6017C121.697 63.722 121.507 63.8976 121.365 64.1135C121.25 64.3309 121.205 64.5824 121.237 64.8297C121.273 65.1189 121.378 65.3935 121.54 65.6281L122.756 67.6031L122.115 68.059L119.722 64.2347L120.35 63.7903L120.995 64.8237L120.721 64.6183C120.683 64.2825 120.746 63.9426 120.901 63.6475C121.096 63.3357 121.353 63.0738 121.654 62.8804Z" fill="black"/>
<path d="M128.517 62.3315C128.319 62.6195 128.063 62.8565 127.768 63.0252C127.491 63.1713 127.178 63.2206 126.873 63.1663C126.516 63.0855 126.184 62.9123 125.905 62.662L123.964 61.0379L124.445 60.3853L126.32 61.9553C126.579 62.2011 126.916 62.3324 127.263 62.3223C127.416 62.2976 127.564 62.2399 127.696 62.1527C127.829 62.0655 127.943 61.9506 128.033 61.8148C128.191 61.6125 128.298 61.3709 128.345 61.1125C128.38 60.8704 128.344 60.6226 128.242 60.4033C128.114 60.1515 127.936 59.9324 127.721 59.7607L125.966 58.286L126.446 57.6335L129.837 60.4876L129.382 61.0929L128.465 60.3341L128.781 60.432C128.925 60.7351 128.97 61.0802 128.912 61.414C128.858 61.7517 128.722 62.0682 128.517 62.3315Z" fill="black"/>
<path d="M127.337 57.2213L126.756 56.9557L127.82 54.2925L128.401 54.5581L127.337 57.2213ZM131.581 56.7564C131.518 56.9391 131.422 57.1066 131.298 57.2492C131.173 57.3918 131.024 57.5068 130.858 57.5874C130.698 57.6585 130.525 57.6948 130.352 57.6942C130.178 57.6937 130.006 57.6563 129.846 57.5843L126.228 55.9064L126.532 55.142L130.078 56.8636C130.253 56.9485 130.451 56.9679 130.638 56.9185C130.727 56.8914 130.809 56.8437 130.879 56.7789C130.949 56.714 131.005 56.6336 131.043 56.5432C131.136 56.3246 131.156 56.0788 131.101 55.8462L131.71 55.8556C131.757 56.024 131.769 56.2013 131.745 56.3751C131.702 56.5077 131.648 56.6355 131.581 56.7564Z" fill="black"/>
<path d="M132.772 52.1832C132.707 52.6297 132.54 53.0522 132.287 53.4138C132.044 53.7398 131.721 53.9873 131.353 54.1289C130.986 54.2704 130.59 54.3004 130.208 54.2156C129.812 54.1474 129.439 53.9707 129.125 53.7026C128.84 53.4487 128.624 53.1179 128.498 52.7443C128.38 52.3491 128.357 51.9284 128.43 51.5209C128.491 51.0941 128.67 50.6963 128.944 50.3787C129.177 50.0755 129.488 49.8512 129.838 49.733C130.223 49.6011 130.633 49.5772 131.029 49.6635L131.103 49.7553L130.455 53.6191L129.898 53.5152L130.543 50.045L130.68 50.4C130.427 50.3485 130.165 50.3624 129.918 50.4404C129.695 50.5296 129.496 50.6749 129.337 50.8639C129.172 51.0742 129.067 51.3311 129.035 51.6038C128.983 51.8665 128.996 52.1391 129.074 52.3944C129.178 52.6287 129.34 52.8282 129.542 52.9714C129.744 53.1494 129.987 53.2657 130.245 53.3078L130.37 53.3296C130.633 53.3852 130.905 53.3634 131.157 53.2664C131.393 53.1505 131.593 52.9651 131.734 52.7319C131.9 52.4824 132.014 52.197 132.066 51.8958C132.105 51.6469 132.102 51.3925 132.058 51.1446C132.009 50.9072 131.909 50.685 131.768 50.4949L132.333 50.1318C132.529 50.3766 132.664 50.6705 132.725 50.9861C132.823 51.3765 132.839 51.7854 132.772 52.1832Z" fill="black"/>
<path d="M132.99 46.6503C133.019 47.0189 133.002 47.3901 132.94 47.7539C132.884 48.0529 132.783 48.3403 132.641 48.6049L131.993 48.3096C132.119 48.0744 132.21 47.8198 132.262 47.5548C132.319 47.2606 132.335 46.9593 132.31 46.6601C132.303 46.3683 132.227 46.0832 132.089 45.8312C132.037 45.7593 131.969 45.7026 131.891 45.6665C131.813 45.6305 131.727 45.6162 131.643 45.625C131.585 45.6401 131.532 45.6696 131.487 45.7111C131.442 45.7526 131.407 45.805 131.385 45.8638C131.308 45.9946 131.258 46.1422 131.241 46.2958L131.191 46.8704C131.181 47.0832 131.159 47.2951 131.126 47.5053C131.099 47.7047 131.047 47.8993 130.972 48.0843C130.912 48.2604 130.806 48.4145 130.667 48.5286C130.5 48.6647 130.298 48.7399 130.088 48.7431C129.842 48.7773 129.593 48.7146 129.386 48.5667C129.162 48.4238 128.987 48.2077 128.886 47.9503C128.745 47.6402 128.662 47.3037 128.641 46.9596C128.615 46.6526 128.624 46.3434 128.668 46.0387C128.693 45.7644 128.77 45.4982 128.893 45.256L129.541 45.5513C129.434 45.7567 129.361 45.98 129.324 46.2117C129.299 46.4397 129.292 46.6696 129.302 46.899C129.307 47.182 129.389 47.4573 129.537 47.6921C129.582 47.7724 129.648 47.8369 129.727 47.8778C129.806 47.9188 129.895 47.9344 129.982 47.9228C130.046 47.9243 130.109 47.9081 130.166 47.8758C130.222 47.8434 130.27 47.796 130.305 47.7382C130.389 47.611 130.439 47.4615 130.449 47.3061C130.485 47.1172 130.509 46.9258 130.521 46.7333L130.587 46.0984C130.604 45.894 130.652 45.694 130.73 45.5063C130.784 45.3115 130.887 45.1363 131.028 44.9999C131.189 44.871 131.382 44.7958 131.583 44.7837C131.829 44.7595 132.075 44.8214 132.285 44.9601C132.501 45.1225 132.676 45.3386 132.796 45.5896C132.922 45.9273 132.987 46.2869 132.99 46.6503Z" fill="black"/>
<path d="M129.841 40.1111C130.766 39.6622 131.815 39.0374 132.255 38.0984C132.328 37.9163 132.374 37.7241 132.389 37.5284C132.487 36.7933 132.502 36.0496 132.433 35.3115C132.289 33.8524 131.694 32.5173 131.016 31.2533C126.573 22.6759 117.805 16.5792 108.188 15.6392C96.6549 14.3387 85.0408 20.6386 79.7765 30.938C77.1151 36.0536 76.0582 41.8527 76.7445 47.5747C77.8788 57.257 84.3843 65.9836 93.4313 69.5019C97.4234 71.0778 101.746 71.6321 106.009 71.1149C102.282 71.2012 98.5819 70.4771 95.1637 68.9924C86.4314 65.2316 80.4928 56.553 80.134 47.0512C79.9359 41.6302 81.5088 36.1357 84.6754 31.7304C91.7541 21.7701 105.259 18.6824 115.665 25.2016C119.31 27.507 122.204 30.8283 123.991 34.7589C124.515 35.9905 125.029 37.2681 125.926 38.3348C126.287 38.7504 126.592 39.2863 127.123 39.531C127.91 39.893 128.935 40.0391 129.837 40.1197L129.841 40.1111Z" fill="#69E167"/>
</g>
<path d="M162.463 51.686C160.81 51.686 159.528 51.2417 158.619 50.353C157.71 49.4643 157.255 48.1933 157.255 46.54V31.474H160.231V46.416C160.231 47.3047 160.448 47.9867 160.882 48.462C161.337 48.9373 161.977 49.175 162.804 49.175C163.734 49.175 164.509 48.9167 165.129 48.4L166.059 50.539C165.604 50.9317 165.057 51.221 164.416 51.407C163.796 51.593 163.145 51.686 162.463 51.686ZM154.465 37.519V35.07H164.943V37.519H154.465ZM179.856 51.5V48.028L179.701 47.377V41.456C179.701 40.1953 179.329 39.224 178.585 38.542C177.862 37.8393 176.766 37.488 175.299 37.488C174.328 37.488 173.377 37.6533 172.447 37.984C171.517 38.294 170.732 38.7177 170.091 39.255L168.851 37.023C169.698 36.341 170.711 35.8243 171.889 35.473C173.088 35.101 174.338 34.915 175.64 34.915C177.893 34.915 179.629 35.4627 180.848 36.558C182.067 37.6533 182.677 39.3273 182.677 41.58V51.5H179.856ZM174.462 51.686C173.243 51.686 172.168 51.4793 171.238 51.066C170.329 50.6527 169.626 50.0843 169.13 49.361C168.634 48.617 168.386 47.78 168.386 46.85C168.386 45.9613 168.593 45.1553 169.006 44.432C169.44 43.7087 170.132 43.13 171.083 42.696C172.054 42.262 173.356 42.045 174.989 42.045H180.197V44.184H175.113C173.625 44.184 172.623 44.432 172.106 44.928C171.589 45.424 171.331 46.0233 171.331 46.726C171.331 47.532 171.651 48.183 172.292 48.679C172.933 49.1543 173.821 49.392 174.958 49.392C176.074 49.392 177.045 49.144 177.872 48.648C178.719 48.152 179.329 47.4287 179.701 46.478L180.29 48.524C179.897 49.4953 179.205 50.2703 178.213 50.849C177.221 51.407 175.971 51.686 174.462 51.686ZM188.184 51.5V28.498H191.16V51.5H188.184ZM199.26 47.532L199.322 43.719L208.777 35.07H212.373L205.119 42.2L203.507 43.564L199.26 47.532ZM196.842 51.5V28.498H199.818V51.5H196.842ZM209.397 51.5L202.949 43.502L204.871 41.115L213.055 51.5H209.397Z" fill="black"/>
</g>
<defs>
<clipPath id="clip0_106_3584">
<rect width="214" height="81" fill="white"/>
</clipPath>
<clipPath id="clip1_106_3584">
<rect width="68" height="81" fill="white" transform="translate(71)"/>
</clipPath>
</defs>
</svg>
