<svg width="217" height="81" viewBox="0 0 217 81" fill="none" xmlns="http://www.w3.org/2000/svg">
<g clip-path="url(#clip0_120_3302)">
<path d="M3.255 51.3008V33.4138C3.255 31.8017 3.72 30.5204 4.65 29.5697C5.60067 28.5984 6.944 28.1127 8.68 28.1127C9.32067 28.1127 9.93033 28.1954 10.509 28.3608C11.1083 28.5054 11.6147 28.7431 12.028 29.0738L11.129 31.3367C10.819 31.0887 10.4677 30.9027 10.075 30.7787C9.68233 30.6341 9.269 30.5617 8.835 30.5617C7.967 30.5617 7.30567 30.8097 6.851 31.3057C6.39633 31.7811 6.169 32.4941 6.169 33.4447V35.6458L6.231 37.0097V51.3008H3.255ZM0.465 37.3197V34.8707H10.943V37.3197H0.465ZM13.764 51.3008V34.8707H16.74V51.3008H13.764ZM15.252 31.7087C14.6733 31.7087 14.1877 31.5227 13.795 31.1507C13.423 30.7787 13.237 30.3241 13.237 29.7868C13.237 29.2288 13.423 28.7638 13.795 28.3918C14.1877 28.0197 14.6733 27.8337 15.252 27.8337C15.8307 27.8337 16.306 28.0197 16.678 28.3918C17.0707 28.7431 17.267 29.1874 17.267 29.7247C17.267 30.2827 17.081 30.7581 16.709 31.1507C16.337 31.5227 15.8513 31.7087 15.252 31.7087ZM26.7169 51.3008L19.5249 34.8707H22.6249L29.0109 49.7508H27.5229L34.0329 34.8707H36.9469L29.7549 51.3008H26.7169ZM46.5862 51.4868C44.8296 51.4868 43.2796 51.1251 41.9362 50.4018C40.6136 49.6784 39.5802 48.6864 38.8362 47.4258C38.1129 46.1651 37.7512 44.7184 37.7512 43.0858C37.7512 41.4531 38.1026 40.0064 38.8052 38.7457C39.5286 37.4851 40.5102 36.5034 41.7502 35.8008C43.0109 35.0774 44.4266 34.7157 45.9972 34.7157C47.5886 34.7157 48.9939 35.0671 50.2132 35.7697C51.4326 36.4724 52.3832 37.4644 53.0652 38.7457C53.7679 40.0064 54.1192 41.4841 54.1192 43.1787C54.1192 43.3028 54.1089 43.4474 54.0882 43.6128C54.0882 43.7781 54.0779 43.9331 54.0572 44.0778H40.0762V41.9388H52.5072L51.2982 42.6827C51.3189 41.6287 51.1019 40.6884 50.6472 39.8618C50.1926 39.0351 49.5622 38.3944 48.7562 37.9397C47.9709 37.4644 47.0512 37.2267 45.9972 37.2267C44.9639 37.2267 44.0442 37.4644 43.2382 37.9397C42.4322 38.3944 41.8019 39.0454 41.3472 39.8927C40.8926 40.7194 40.6652 41.6701 40.6652 42.7448V43.2408C40.6652 44.3361 40.9132 45.3178 41.4092 46.1858C41.9259 47.0331 42.6389 47.6944 43.5482 48.1698C44.4576 48.6451 45.5012 48.8828 46.6792 48.8828C47.6506 48.8828 48.5289 48.7174 49.3142 48.3868C50.1202 48.0561 50.8229 47.5601 51.4222 46.8988L53.0652 48.8208C52.3212 49.6888 51.3912 50.3501 50.2752 50.8048C49.1799 51.2594 47.9502 51.4868 46.5862 51.4868Z" fill="black"/>
<g clip-path="url(#clip1_120_3302)">
<path d="M89.1833 12.2958L75.4488 26.0303C74.979 26.5001 74.979 27.2618 75.4488 27.7316L76.5759 28.8587C77.0457 29.3285 77.8074 29.3285 78.2772 28.8587L92.0118 15.1242C92.4816 14.6544 92.4816 13.8927 92.0118 13.4229L90.8846 12.2958C90.4148 11.826 89.6531 11.826 89.1833 12.2958Z" fill="black"/>
<path d="M126.917 10.6643L125.79 11.7914C125.32 12.2612 125.32 13.0229 125.79 13.4927L139.525 27.2273C139.994 27.6971 140.756 27.6971 141.226 27.2273L142.353 26.1002C142.823 25.6304 142.823 24.8687 142.353 24.3988L128.618 10.6643C128.149 10.1945 127.387 10.1945 126.917 10.6643Z" fill="black"/>
<path d="M109.521 46.8008V29.8008C109.521 28.9723 108.849 28.3008 108.021 28.3008C107.192 28.3008 106.521 28.9723 106.521 29.8008V46.8008C106.521 47.6292 107.192 48.3008 108.021 48.3008C108.849 48.3008 109.521 47.6292 109.521 46.8008Z" fill="black"/>
<path d="M122.021 45.3008H108.021C107.192 45.3008 106.521 45.9723 106.521 46.8008C106.521 47.6292 107.192 48.3008 108.021 48.3008H122.021C122.849 48.3008 123.521 47.6292 123.521 46.8008C123.521 45.9723 122.849 45.3008 122.021 45.3008Z" fill="black"/>
<path d="M118.943 65.8156C119.244 65.8024 119.543 65.863 119.818 65.9928C120.091 66.1176 120.316 66.3389 120.455 66.6196C120.637 66.9602 120.734 67.3444 120.738 67.7362L120.851 70.3658L120.076 70.4177L119.958 67.8616C119.967 67.5016 119.851 67.1509 119.632 66.877C119.521 66.7638 119.388 66.6783 119.242 66.6268C119.096 66.5753 118.941 66.559 118.789 66.5791C118.552 66.5789 118.319 66.6509 118.119 66.7865C117.931 66.9156 117.782 67.1012 117.692 67.3201C117.595 67.5873 117.556 67.8748 117.579 68.1606L117.674 70.5304L116.889 70.5692L116.782 68.0262C116.797 67.6591 116.676 67.3003 116.445 67.0285C116.336 66.916 116.204 66.8319 116.06 66.7825C115.915 66.7331 115.762 66.7198 115.612 66.7437C115.38 66.7434 115.153 66.8113 114.955 66.9398C114.757 67.0663 114.603 67.2574 114.516 67.4847C114.412 67.7455 114.369 68.0296 114.391 68.312L114.498 70.695L113.712 70.7337L113.52 66.1786L114.272 66.125L114.328 67.3597L114.126 67.1106C114.246 66.7999 114.457 66.5395 114.728 66.3688C115.021 66.1849 115.352 66.0831 115.691 66.0729C116.067 66.0459 116.441 66.1386 116.767 66.3393C117.08 66.5649 117.303 66.9063 117.394 67.2975L117.08 67.1752C117.194 66.8129 117.418 66.5011 117.715 66.2882C118.072 66.0047 118.499 65.8403 118.943 65.8156Z" fill="black"/>
<path d="M123.293 69.2965L121.773 64.9848L122.506 64.696L124.016 68.9945L123.293 69.2965ZM121.904 64.0596C121.839 64.0922 121.768 64.1086 121.696 64.1074C121.624 64.1062 121.554 64.0875 121.49 64.0527C121.428 64.0238 121.373 63.9805 121.329 63.9261C121.285 63.8716 121.252 63.8074 121.234 63.738C121.208 63.6736 121.196 63.6037 121.199 63.5337C121.202 63.4636 121.219 63.395 121.25 63.3331C121.28 63.2655 121.322 63.2054 121.375 63.1564C121.428 63.1075 121.49 63.0708 121.556 63.0488C121.622 63.0195 121.693 63.0051 121.764 63.0062C121.835 63.0074 121.905 63.0242 121.97 63.0556C122.09 63.1044 122.188 63.2001 122.244 63.3232C122.3 63.4464 122.31 63.5877 122.272 63.7184C122.242 63.8039 122.193 63.8801 122.129 63.9398C122.064 63.9994 121.987 64.0407 121.904 64.0596Z" fill="black"/>
<path d="M125.654 62.8804C125.92 62.6882 126.224 62.5639 126.542 62.5171C126.843 62.4776 127.149 62.5395 127.416 62.6944C127.731 62.8888 127.998 63.1625 128.192 63.4917L129.553 65.6993L128.913 66.1551L127.58 64.0358C127.501 63.8744 127.391 63.7322 127.258 63.6184C127.125 63.5045 126.971 63.4213 126.807 63.3741C126.652 63.3418 126.492 63.3454 126.339 63.3847C126.185 63.424 126.041 63.498 125.917 63.6017C125.697 63.722 125.507 63.8976 125.365 64.1135C125.25 64.3309 125.205 64.5824 125.237 64.8297C125.273 65.1189 125.378 65.3935 125.54 65.6281L126.756 67.6031L126.115 68.059L123.722 64.2347L124.35 63.7903L124.995 64.8237L124.721 64.6183C124.683 64.2825 124.746 63.9426 124.901 63.6475C125.096 63.3357 125.353 63.0738 125.654 62.8804Z" fill="black"/>
<path d="M132.517 62.3315C132.319 62.6195 132.063 62.8565 131.768 63.0252C131.491 63.1713 131.178 63.2206 130.873 63.1663C130.516 63.0855 130.184 62.9123 129.905 62.662L127.964 61.0379L128.445 60.3853L130.32 61.9553C130.579 62.2011 130.916 62.3324 131.263 62.3223C131.416 62.2976 131.564 62.2399 131.696 62.1527C131.829 62.0655 131.943 61.9506 132.033 61.8148C132.191 61.6125 132.298 61.3709 132.345 61.1125C132.38 60.8704 132.344 60.6226 132.242 60.4033C132.114 60.1515 131.936 59.9324 131.721 59.7607L129.966 58.286L130.446 57.6335L133.837 60.4876L133.382 61.0929L132.465 60.3341L132.781 60.432C132.925 60.7351 132.97 61.0802 132.912 61.414C132.858 61.7517 132.722 62.0682 132.517 62.3315Z" fill="black"/>
<path d="M131.337 57.2213L130.756 56.9557L131.82 54.2925L132.401 54.5581L131.337 57.2213ZM135.581 56.7564C135.518 56.9391 135.422 57.1066 135.297 57.2492C135.173 57.3918 135.024 57.5068 134.858 57.5874C134.698 57.6585 134.525 57.6948 134.352 57.6942C134.178 57.6937 134.006 57.6563 133.845 57.5843L130.227 55.9064L130.532 55.142L134.078 56.8636C134.253 56.9485 134.451 56.9679 134.638 56.9185C134.727 56.8914 134.809 56.8437 134.879 56.7789C134.949 56.714 135.005 56.6336 135.043 56.5432C135.135 56.3246 135.156 56.0788 135.101 55.8462L135.71 55.8556C135.757 56.024 135.769 56.2013 135.745 56.3751C135.702 56.5077 135.648 56.6355 135.581 56.7564Z" fill="black"/>
<path d="M136.772 52.1832C136.707 52.6297 136.54 53.0522 136.287 53.4138C136.044 53.7398 135.72 53.9873 135.353 54.1289C134.986 54.2704 134.59 54.3004 134.208 54.2156C133.812 54.1474 133.439 53.9707 133.125 53.7026C132.84 53.4487 132.624 53.1179 132.498 52.7443C132.38 52.3491 132.357 51.9284 132.43 51.5209C132.491 51.0941 132.67 50.6963 132.944 50.3787C133.177 50.0755 133.488 49.8512 133.838 49.733C134.223 49.6011 134.633 49.5772 135.029 49.6635L135.103 49.7553L134.455 53.6191L133.897 53.5152L134.543 50.045L134.68 50.4C134.427 50.3485 134.165 50.3624 133.918 50.4404C133.695 50.5296 133.496 50.6749 133.337 50.8639C133.172 51.0742 133.067 51.3311 133.035 51.6038C132.983 51.8665 132.996 52.1391 133.074 52.3944C133.178 52.6287 133.34 52.8282 133.542 52.9714C133.744 53.1494 133.987 53.2657 134.245 53.3078L134.37 53.3296C134.633 53.3852 134.905 53.3634 135.157 53.2664C135.393 53.1505 135.593 52.9651 135.734 52.7319C135.9 52.4824 136.013 52.197 136.066 51.8958C136.105 51.6469 136.102 51.3925 136.058 51.1446C136.009 50.9072 135.909 50.685 135.768 50.4949L136.333 50.1318C136.529 50.3766 136.664 50.6705 136.725 50.9861C136.823 51.3765 136.839 51.7854 136.772 52.1832Z" fill="black"/>
<path d="M136.99 46.6503C137.019 47.0189 137.002 47.3901 136.94 47.7539C136.884 48.0529 136.783 48.3403 136.641 48.6049L135.993 48.3096C136.119 48.0744 136.21 47.8198 136.262 47.5548C136.319 47.2606 136.335 46.9593 136.31 46.6601C136.303 46.3683 136.227 46.0832 136.089 45.8312C136.037 45.7593 135.969 45.7026 135.891 45.6665C135.813 45.6305 135.727 45.6162 135.643 45.625C135.585 45.6401 135.532 45.6696 135.487 45.7111C135.442 45.7526 135.407 45.805 135.385 45.8638C135.308 45.9946 135.258 46.1422 135.241 46.2958L135.191 46.8704C135.181 47.0832 135.159 47.2951 135.126 47.5053C135.099 47.7047 135.047 47.8993 134.972 48.0843C134.912 48.2604 134.806 48.4145 134.667 48.5286C134.5 48.6647 134.298 48.7399 134.088 48.7431C133.842 48.7773 133.593 48.7146 133.386 48.5667C133.162 48.4238 132.987 48.2077 132.886 47.9503C132.745 47.6402 132.662 47.3037 132.641 46.9596C132.615 46.6526 132.624 46.3434 132.668 46.0387C132.693 45.7644 132.77 45.4982 132.893 45.256L133.541 45.5513C133.434 45.7567 133.361 45.98 133.324 46.2117C133.299 46.4397 133.292 46.6696 133.302 46.899C133.307 47.182 133.389 47.4573 133.537 47.6921C133.582 47.7724 133.648 47.8369 133.727 47.8778C133.806 47.9188 133.895 47.9344 133.982 47.9228C134.046 47.9243 134.109 47.9081 134.166 47.8758C134.222 47.8434 134.27 47.796 134.305 47.7382C134.389 47.611 134.439 47.4615 134.449 47.3061C134.485 47.1172 134.509 46.9258 134.521 46.7333L134.587 46.0984C134.604 45.894 134.652 45.694 134.73 45.5063C134.784 45.3115 134.887 45.1363 135.028 44.9999C135.189 44.871 135.382 44.7958 135.583 44.7837C135.829 44.7595 136.075 44.8214 136.285 44.9601C136.501 45.1225 136.676 45.3386 136.796 45.5896C136.922 45.9273 136.987 46.2869 136.99 46.6503Z" fill="black"/>
<path d="M133.841 40.1111C134.766 39.6622 135.815 39.0374 136.255 38.0984C136.328 37.9163 136.374 37.7241 136.389 37.5284C136.487 36.7933 136.502 36.0496 136.433 35.3115C136.289 33.8524 135.694 32.5173 135.016 31.2533C130.573 22.6759 121.805 16.5792 112.187 15.6392C100.655 14.3387 89.0408 20.6386 83.7765 30.938C81.1151 36.0536 80.0582 41.8527 80.7445 47.5747C81.8787 57.257 88.3842 65.9836 97.4313 69.5019C101.423 71.0778 105.746 71.6321 110.009 71.1149C106.282 71.2012 102.582 70.4771 99.1636 68.9924C90.4314 65.2316 84.4927 56.553 84.134 47.0512C83.9359 41.6302 85.5087 36.1357 88.6753 31.7304C95.7541 21.7701 109.259 18.6824 119.665 25.2016C123.31 27.507 126.204 30.8283 127.991 34.7589C128.515 35.9905 129.029 37.2681 129.926 38.3348C130.287 38.7504 130.592 39.2863 131.123 39.531C131.91 39.893 132.935 40.0391 133.837 40.1197L133.841 40.1111Z" fill="#69E167"/>
</g>
<path d="M165.065 51.4868C163.411 51.4868 162.13 51.0424 161.221 50.1538C160.311 49.2651 159.857 47.9941 159.857 46.3408V31.2747H162.833V46.2168C162.833 47.1054 163.05 47.7874 163.484 48.2628C163.938 48.7381 164.579 48.9758 165.406 48.9758C166.336 48.9758 167.111 48.7174 167.731 48.2008L168.661 50.3398C168.206 50.7324 167.658 51.0218 167.018 51.2078C166.398 51.3938 165.747 51.4868 165.065 51.4868ZM157.067 37.3197V34.8707H167.545V37.3197H157.067ZM182.457 51.3008V47.8288L182.302 47.1778V41.2568C182.302 39.9961 181.93 39.0248 181.186 38.3428C180.463 37.6401 179.368 37.2888 177.9 37.2888C176.929 37.2888 175.978 37.4541 175.048 37.7848C174.118 38.0947 173.333 38.5184 172.692 39.0558L171.452 36.8238C172.3 36.1418 173.312 35.6251 174.49 35.2738C175.689 34.9017 176.939 34.7157 178.241 34.7157C180.494 34.7157 182.23 35.2634 183.449 36.3588C184.669 37.4541 185.278 39.1281 185.278 41.3808V51.3008H182.457ZM177.063 51.4868C175.844 51.4868 174.769 51.2801 173.839 50.8668C172.93 50.4534 172.227 49.8851 171.731 49.1618C171.235 48.4178 170.987 47.5808 170.987 46.6508C170.987 45.7621 171.194 44.9561 171.607 44.2328C172.041 43.5094 172.734 42.9308 173.684 42.4968C174.656 42.0628 175.958 41.8458 177.59 41.8458H182.798V43.9848H177.714C176.226 43.9848 175.224 44.2328 174.707 44.7288C174.191 45.2248 173.932 45.8241 173.932 46.5268C173.932 47.3328 174.253 47.9838 174.893 48.4798C175.534 48.9551 176.423 49.1928 177.559 49.1928C178.675 49.1928 179.647 48.9448 180.473 48.4488C181.321 47.9528 181.93 47.2294 182.302 46.2788L182.891 48.3248C182.499 49.2961 181.806 50.0711 180.814 50.6498C179.822 51.2078 178.572 51.4868 177.063 51.4868ZM190.786 51.3008V28.2987H193.762V51.3008H190.786ZM201.862 47.3328L201.924 43.5198L211.379 34.8707H214.975L207.721 42.0008L206.109 43.3648L201.862 47.3328ZM199.444 51.3008V28.2987H202.42V51.3008H199.444ZM211.999 51.3008L205.551 43.3028L207.473 40.9158L215.657 51.3008H211.999Z" fill="black"/>
</g>
<defs>
<clipPath id="clip0_120_3302">
<rect width="216.602" height="80.6015" fill="white"/>
</clipPath>
<clipPath id="clip1_120_3302">
<rect width="80.6015" height="80.6015" fill="white" transform="translate(66)"/>
</clipPath>
</defs>
</svg>
