<svg width="628" height="474" viewBox="0 0 628 474" fill="none" xmlns="http://www.w3.org/2000/svg">
<g clip-path="url(#clip0_387_3760)">
<path d="M577.934 474C584.695 474 591.386 472.631 597.604 469.975C603.821 467.319 609.436 463.431 614.11 458.546C618.784 453.662 622.42 447.881 624.798 441.553C627.177 435.225 628.249 428.481 627.95 421.727C626.303 384.479 602.626 331.096 538.093 282.884C448.549 215.989 502.591 59.3663 385.051 43.416C191.851 17.1996 209.046 192.532 89.7493 255.042C13.8117 294.831 0.00496135 372.685 0 424.022C0.0122135 437.287 5.29313 450.003 14.6814 459.376C24.0697 468.748 36.7967 474.008 50.0635 474H577.934Z" fill="#F3FDF6"/>
<path d="M185.355 350.498L455.585 350.498L455.585 3.05176e-05L185.355 3.05176e-05L185.355 350.498Z" fill="#DEE8F5"/>
<path d="M270.301 52.8928C270.301 58.8292 268.541 64.6322 265.242 69.5681C261.943 74.504 257.255 78.3511 251.77 80.6228C246.284 82.8946 240.248 83.489 234.425 82.3309C228.602 81.1727 223.253 78.3141 219.054 74.1165C214.856 69.9188 211.997 64.5707 210.839 58.7484C209.68 52.9261 210.275 46.8912 212.547 41.4067C214.819 35.9222 218.667 31.2345 223.603 27.9365C228.54 24.6384 234.344 22.8781 240.282 22.8781C244.227 22.8661 248.136 23.6343 251.784 25.1384C255.431 26.6426 258.745 28.853 261.535 31.6425C264.325 34.432 266.536 37.7456 268.04 41.3925C269.545 45.0395 270.313 48.9479 270.301 52.8928Z" fill="#C1D8ED"/>
<path d="M240.281 55.9854C246.845 55.9854 252.166 50.6654 252.166 44.1028C252.166 37.5402 246.845 32.2202 240.281 32.2202C233.718 32.2202 228.397 37.5402 228.397 44.1028C228.397 50.6654 233.718 55.9854 240.281 55.9854Z" fill="white"/>
<path d="M261.914 73.7051C259.113 76.6152 255.753 78.9301 252.036 80.5113C248.319 82.0926 244.321 82.9076 240.282 82.9076C236.242 82.9076 232.244 82.0926 228.527 80.5113C224.81 78.9301 221.45 76.6152 218.649 73.7051C222.697 64.6607 230.868 58.4791 240.281 58.4791C249.695 58.4791 257.867 64.6607 261.914 73.7051Z" fill="white"/>
<path d="M343.14 23.0645H282.534V41.3766H343.14V23.0645Z" fill="white"/>
<path d="M430.677 52.7036H282.534V59.3663H430.677V52.7036Z" fill="white"/>
<path d="M430.677 70.6934H282.534V77.3561H430.677V70.6934Z" fill="white"/>
<path d="M261.357 101.713H210.263V109.582H261.357V101.713Z" fill="white"/>
<path d="M430.678 118.332H210.263V138.795H430.678V118.332Z" fill="white"/>
<path d="M261.357 153.858H210.263V161.727H261.357V153.858Z" fill="white"/>
<path d="M430.678 170.477H210.263V190.94H430.678V170.477Z" fill="white"/>
<path d="M261.357 206.003H210.263V213.872H261.357V206.003Z" fill="white"/>
<path d="M430.678 222.622H210.263V243.085H430.678V222.622Z" fill="white"/>
<path d="M261.357 258.148H210.263V266.016H261.357V258.148Z" fill="white"/>
<path d="M430.678 274.767H210.263V295.23H430.678V274.767Z" fill="white"/>
<path d="M345.153 312.563H295.786V327.537H345.153V312.563Z" fill="#C1D8ED"/>
<path d="M142.578 157.855C142.578 157.855 148.059 154.95 146.835 140.029L158.158 137.929C158.158 137.929 156.886 151.308 162.615 155.555L142.578 157.855Z" fill="#E98862"/>
<path d="M140.41 134.243C141.194 138.77 143.665 143.057 147.659 144.518C152.4 146.254 155.912 146.372 161.379 146.372C168.839 146.372 168.592 138.593 168.802 130.755C169.015 122.884 168.386 114.442 165.437 111.7C159.555 106.226 142.28 109.693 140.179 118.849C139.093 123.588 139.664 129.933 140.41 134.243Z" fill="#E98862"/>
<path d="M172.8 116.251C172.8 116.251 175.855 115.568 175.019 112.523C174.464 110.502 171.876 110.951 171.876 110.951C171.876 110.951 174.327 110.502 174.327 108.363C174.327 107.016 173.291 104.732 170.166 106.037C166.498 107.568 162.317 107.371 159.137 106.837C157.338 106.443 155.512 106.186 153.674 106.066H153.664C151.552 106.029 149.446 106.311 147.417 106.902C141.733 108.602 132.998 113.719 134.959 125.251C137.079 137.713 144.669 143.189 145.714 143.948C147.677 145.375 159.748 145.664 160.944 144.468C162.734 142.678 163.708 135.481 163.344 122.944C168.292 122.161 171.69 121.827 171.69 121.827C171.69 121.827 175.801 121.982 175.801 118.977C175.801 115.972 172.8 116.251 172.8 116.251Z" fill="#0F1011"/>
<path d="M166.954 132.241C167.041 133.388 166.67 134.522 165.923 135.397C165.176 136.271 164.113 136.814 162.967 136.908C161.821 137.001 160.684 136.638 159.805 135.896C158.926 135.155 158.376 134.096 158.275 132.95C158.219 132.378 158.278 131.801 158.449 131.253C158.62 130.704 158.9 130.196 159.272 129.758C159.643 129.32 160.099 128.961 160.613 128.703C161.126 128.445 161.686 128.292 162.259 128.255C165.362 128.157 166.757 129.845 166.954 132.241Z" fill="#E98862"/>
<path d="M193.361 465.698L177.348 463.795C178.069 457.734 178.882 450.456 178.939 449.263C178.939 449.338 178.939 449.404 178.939 449.45H195.065C195.061 449.934 195.061 451.404 193.361 465.698Z" fill="#E98862"/>
<path d="M129.108 467.625L112.982 467.573C112.982 467.573 113.036 450.925 113.036 449.45H129.162C129.162 450.929 129.108 467.625 129.108 467.625Z" fill="#E98862"/>
<path d="M199.311 460.125C197.976 426.774 197.97 390.394 197.48 356.983C192.022 320.427 188.985 280.365 182.171 244.071L181.966 244.131L181.366 240.039L122.946 238.913L108.826 459.692L137.137 462.083L154.906 279.215C160.551 306.175 164.338 334.132 169.334 360.822C169.334 360.822 171.015 427.737 170.902 460.607L199.311 460.125Z" fill="#262626"/>
<path d="M148.71 473.861C149.124 473.859 149.534 473.776 149.916 473.616C150.298 473.456 150.645 473.222 150.936 472.928C151.228 472.634 151.459 472.285 151.616 471.902C151.773 471.519 151.852 471.108 151.851 470.694C151.851 470.616 151.847 470.538 151.841 470.46C151.794 469.86 151.577 469.287 151.215 468.807C150.853 468.327 150.362 467.96 149.799 467.75L131.03 461.465C130.666 461.344 130.281 461.304 129.9 461.346C129.52 461.389 129.153 461.513 128.824 461.71C126.244 463.5 123.157 464.416 120.018 464.321C117.573 464.147 115.226 463.29 113.245 461.847C113.071 461.705 112.86 461.615 112.636 461.587C112.413 461.56 112.186 461.597 111.983 461.693C111.779 461.79 111.608 461.942 111.487 462.133C111.367 462.323 111.304 462.544 111.304 462.769V471.945C111.304 472.49 111.521 473.013 111.906 473.398C112.292 473.784 112.815 474 113.36 474H113.369L148.71 473.861Z" fill="#C1D8ED"/>
<path d="M213.008 473.861C213.422 473.859 213.832 473.776 214.214 473.616C214.596 473.456 214.943 473.222 215.235 472.928C215.526 472.634 215.757 472.285 215.914 471.902C216.071 471.519 216.151 471.108 216.149 470.694C216.149 470.616 216.149 470.538 216.139 470.46C216.092 469.86 215.875 469.287 215.513 468.807C215.152 468.327 214.66 467.96 214.097 467.75L195.328 461.465C194.965 461.344 194.579 461.304 194.199 461.346C193.818 461.389 193.451 461.513 193.122 461.71C190.542 463.5 187.455 464.416 184.316 464.321C181.871 464.147 179.524 463.29 177.543 461.847C177.369 461.705 177.158 461.615 176.934 461.587C176.711 461.56 176.484 461.597 176.281 461.693C176.078 461.79 175.906 461.942 175.786 462.133C175.666 462.323 175.602 462.544 175.603 462.769V471.945C175.603 472.49 175.819 473.013 176.205 473.398C176.59 473.784 177.113 474 177.658 474H177.667L213.008 473.861Z" fill="#C1D8ED"/>
<path d="M105.755 264.097C105.755 266.386 106.959 274.035 105.02 274.581C103.854 274.908 102.478 269.208 102.478 269.208" fill="#E98862"/>
<path d="M96.5782 262.896C96.5782 262.896 90.2327 278.339 97.4706 287.211C97.6551 287.437 97.9035 287.602 98.1834 287.684C98.4632 287.767 98.7613 287.763 99.0389 287.673C99.3164 287.584 99.5604 287.412 99.739 287.182C99.9176 286.951 100.022 286.672 100.04 286.381C100.394 280.399 101.599 268.112 105.543 269.547V259.901" fill="#E98862"/>
<path d="M239.668 180.619C239.668 180.619 248.528 173.581 249.158 171.053C249.788 168.524 243.543 163.552 243.543 163.552C243.543 163.552 251.843 155.19 250.188 153.975C248.235 152.543 238.604 164.709 238.604 164.709C238.604 164.709 239.965 160.332 238.269 160.045C237.573 159.928 237.02 160.612 235.93 163.709C234.688 167.239 232.204 172.551 232.204 172.551L239.668 180.619Z" fill="#E98862"/>
<path d="M230.338 171.261L204.124 200.749L183.594 164.006C181.643 158.239 177.231 154.368 168.245 153.987C165.162 153.854 150.118 153.831 139.104 153.831C131.704 153.831 125.629 156.099 122.121 159.609C120.355 161.35 119.032 163.49 118.266 165.849L118.161 165.81L100.535 213.728C100.336 214.265 100.194 214.822 100.109 215.388L92.9969 263.311L109.559 265.768L116.546 218.7L123.664 199.348C124.405 202.322 124.809 205.371 124.869 208.435C124.869 224.562 117.576 231.789 118.11 240.064C118.955 253.074 182.174 250 185.396 242.61C188.712 234.989 181.981 230.294 182.277 205.366C182.309 202.654 182.519 199.816 182.807 196.927L195.247 219.192C195.899 220.358 196.82 221.351 197.934 222.088C199.047 222.826 200.321 223.286 201.649 223.431C202.977 223.575 204.32 223.4 205.567 222.92C206.813 222.44 207.926 221.668 208.814 220.67L243.28 180.359L230.338 171.261Z" fill="#69E167"/>
<path d="M91.3036 414.588C87.7598 413.428 84.1231 414.73 80.6431 417.376C85.2267 405.804 87.1184 395.351 79.2823 394.88C73.7993 394.551 69.5991 398.757 66.4083 404.736C65.2863 394.223 62.391 386.382 55.9058 388.982C48.7856 391.836 47.7019 401.617 48.782 411.851C45.6458 406.623 42.2678 403.709 39.201 406.775C30.0487 415.926 52.5137 441.711 52.5137 441.711H58.0931L61.2768 445.167C60.6326 446.53 60.2796 447.341 60.2796 447.341L64.3238 455.57C64.3238 455.57 106.012 419.402 91.3036 414.588Z" fill="#C1F3C1"/>
<path d="M81.3009 474H49.7254L44.4402 437.145H86.5861L81.3009 474Z" fill="#C1D8ED"/>
<path d="M527.668 332.751C525.944 332.184 524.175 332.822 522.481 334.107C524.711 328.478 525.632 323.393 521.819 323.164C519.152 323.004 517.108 325.05 515.556 327.958C515.01 322.844 513.602 319.029 510.447 320.294C506.983 321.683 506.456 326.441 506.981 331.419C505.453 328.877 503.812 327.459 502.32 328.949C497.867 333.401 508.797 345.947 508.797 345.947H511.51L513.06 347.628C512.746 348.291 512.574 348.686 512.574 348.686L514.542 352.689C514.542 352.689 534.825 335.093 527.668 332.751Z" fill="#C1F3C1"/>
<path d="M522.803 361.655H507.442L504.871 343.725H525.375L522.803 361.655Z" fill="#C1D8ED"/>
<path d="M493.487 464.975H485.299V474H493.487V464.975Z" fill="#C1D8ED"/>
<path d="M571.392 464.975H563.203V474H571.392V464.975Z" fill="#C1D8ED"/>
<path d="M578.441 362.075H544.085V466.021H578.441V362.075Z" fill="#C1D8ED"/>
<path d="M485.194 364.378H450.012V464.975H485.194V364.378Z" fill="#C1D8ED"/>
<path d="M546.399 466.021H447.698V362.075H546.399V466.021ZM452.326 461.394H541.772V366.703H452.326V461.394Z" fill="#DEE8F5"/>
<path d="M546.399 466.021H447.698V408.712H546.399V466.021ZM452.326 461.394H541.772V413.34H452.326V461.394Z" fill="#DEE8F5"/>
<path d="M492.442 374.948V381.567V408.675H534.37V381.567V374.948H492.442Z" fill="#C1D8ED"/>
<path d="M520.627 381.568H478.699V408.675H520.627V381.568Z" fill="#DEE8F5"/>
<path d="M520.627 381.568H478.699V383.599H520.627V381.568Z" fill="#C1D8ED"/>
<path d="M478.7 381.568H520.628V374.948H478.7V381.568Z" fill="#DEE8F5"/>
<path d="M504.31 387.011H495.017C494.483 387.011 494.051 387.444 494.051 387.977V390.116C494.051 390.649 494.483 391.082 495.017 391.082H504.31C504.844 391.082 505.276 390.649 505.276 390.116V387.977C505.276 387.444 504.844 387.011 504.31 387.011Z" fill="white"/>
<path d="M462.19 464.975H454.002V474H462.19V464.975Z" fill="#DEE8F5"/>
<path d="M540.095 464.975H531.907V474H540.095V464.975Z" fill="#DEE8F5"/>
<path d="M530.78 451.074H485.197V461.394H530.78V451.074Z" fill="#C1D8ED"/>
<path d="M531.564 430.457H485.98V440.777H531.564V430.457Z" fill="#C1D8ED"/>
<path d="M515.225 451.074H467.021V461.394H515.225V451.074Z" fill="#DEE8F5"/>
<g opacity="0.62">
<path d="M511.291 451.074H508.951V461.394H511.291V451.074Z" fill="#C1D8ED"/>
</g>
<g opacity="0.62">
<path d="M506.611 451.074H504.271V461.394H506.611V451.074Z" fill="#C1D8ED"/>
</g>
<path d="M472.548 459.562C474.386 459.562 475.876 458.072 475.876 456.234C475.876 454.396 474.386 452.906 472.548 452.906C470.709 452.906 469.219 454.396 469.219 456.234C469.219 458.072 470.709 459.562 472.548 459.562Z" fill="#F3FDF6"/>
<path d="M516.008 430.457H467.804V440.777H516.008V430.457Z" fill="#DEE8F5"/>
<path d="M504.547 432.781H470.908V438.453H504.547V432.781Z" fill="#F3FDF6"/>
<g opacity="0.62">
<path d="M512.074 430.457H507.646V440.777H512.074V430.457Z" fill="#C1D8ED"/>
</g>
<path d="M488.915 451.085H534.498V440.765H488.915V451.085Z" fill="#C1D8ED"/>
<path d="M470.739 451.085H518.943V440.765H470.739V451.085Z" fill="#F3FDF6"/>
<path d="M474.673 451.085H477.013V440.765H474.673V451.085Z" fill="#DEE8F5"/>
<path d="M479.353 451.085H481.693V440.765H479.353V451.085Z" fill="#DEE8F5"/>
<path d="M513.417 449.253C515.255 449.253 516.745 447.763 516.745 445.925C516.745 444.087 515.255 442.598 513.417 442.598C511.579 442.598 510.089 444.087 510.089 445.925C510.089 447.763 511.579 449.253 513.417 449.253Z" fill="#DEE8F5"/>
<path d="M506.578 443.396H485.299V448.455H506.578V443.396Z" fill="#DEE8F5"/>
</g>
<defs>
<clipPath id="clip0_387_3760">
<rect width="628" height="474" fill="white"/>
</clipPath>
</defs>
</svg>
