<svg width="514" height="362" viewBox="0 0 514 362" fill="none" xmlns="http://www.w3.org/2000/svg">
<g clip-path="url(#clip0_651_4158)">
<path d="M34.778 362C30.0813 362 25.4334 361.045 21.1145 359.194C16.7955 357.342 12.8951 354.632 9.64841 351.226C6.40173 347.821 3.87607 343.791 2.22376 339.379C0.57146 334.968 -0.173251 330.266 0.0345464 325.558C1.1787 299.59 14.4116 262.923 66.5715 226.278C130.178 181.592 101.489 52.9357 236.637 61.8129C371.784 70.69 368.787 165.773 451.655 209.351C504.406 237.091 513.996 291.368 514 327.158C513.991 336.405 510.323 345.27 503.801 351.804C497.28 358.338 488.439 362.005 479.223 362H34.778Z" fill="#F3F5FD"/>
<path d="M358.238 0H129.149V298.21H358.238V0Z" fill="#B9EAB9"/>
<path d="M337.123 69.3658H150.265V76.4658H337.123V69.3658Z" fill="white"/>
<path d="M337.123 90.4261H150.265V97.5261H337.123V90.4261Z" fill="white"/>
<path d="M337.123 111.487H150.265V118.587H337.123V111.487Z" fill="white"/>
<path d="M337.123 132.547H150.265V274.552H337.123V132.547Z" fill="white"/>
<path d="M337.123 32.2004H150.265V51.5613H337.123V32.2004Z" fill="white"/>
<path d="M165.114 157.667C164.46 156.819 165.24 155.382 165.625 154.581C166.125 153.539 166.713 152.335 167.814 151.824C168.032 151.7 168.275 151.625 168.525 151.604C168.775 151.584 169.026 151.619 169.261 151.706C169.496 151.794 169.71 151.932 169.886 152.11C170.063 152.289 170.198 152.504 170.283 152.741C170.751 153.768 170.885 154.875 171.627 155.768C172.297 156.575 173.355 157.141 174.399 156.732C175.414 156.335 175.836 155.202 176.574 154.474C177.996 153.071 180.319 152.2 181.919 153.796C182.784 154.658 183.437 155.623 184.622 156.074C185.749 156.445 186.965 156.445 188.092 156.074C190.511 155.376 192.482 153.399 195.096 153.376C197.472 153.356 199.663 154.625 201.722 155.665C203.78 156.705 205.837 157.573 208.149 157.837C210.589 158.101 213.057 157.777 215.347 156.892C217.637 156.007 219.683 154.586 221.315 152.747C221.937 152.026 220.892 150.969 220.266 151.695C218.788 153.369 216.934 154.666 214.857 155.478C212.781 156.291 210.541 156.595 208.324 156.366C205.908 156.121 203.787 155.043 201.649 153.963C199.51 152.883 197.179 151.74 194.713 151.901C193.413 152.025 192.152 152.42 191.013 153.061C189.864 153.656 188.763 154.364 187.502 154.691C186.307 155.001 185.073 154.93 184.149 154.032C183.281 153.189 182.637 152.196 181.474 151.724C179.447 150.902 177.159 151.887 175.653 153.298C175.27 153.665 174.924 154.069 174.623 154.505C174.343 154.902 174.029 155.53 173.449 155.349C172.361 155.004 172.15 153.482 171.807 152.576C171.372 151.43 170.64 150.397 169.36 150.169C168.721 150.079 168.07 150.147 167.463 150.367C166.857 150.587 166.313 150.952 165.878 151.431C164.98 152.472 164.287 153.674 163.834 154.974C163.327 156.25 163.189 157.585 164.064 158.722C164.204 158.86 164.392 158.938 164.589 158.938C164.785 158.938 164.973 158.86 165.113 158.722C165.248 158.58 165.323 158.391 165.323 158.195C165.323 157.999 165.248 157.811 165.113 157.669L165.114 157.667Z" fill="#0CBC8B"/>
<path d="M409.902 354.226H402.874V362H409.902V354.226Z" fill="#B9EAB9"/>
<path d="M476.767 354.226H469.739V362H476.767V354.226Z" fill="#B9EAB9"/>
<path d="M482.816 265.589H453.329V355.127H482.816V265.589Z" fill="#B9EAB9"/>
<path d="M402.784 267.573H372.587V354.226H402.784V267.573Z" fill="#B9EAB9"/>
<path d="M455.315 355.127H370.601V265.591H455.315V355.127ZM374.572 351.141H451.343V269.575H374.573L374.572 351.141Z" fill="#A3D7D0"/>
<path d="M455.315 355.127H370.601V305.76H455.315V355.127ZM374.572 351.141H451.343V309.749H374.573L374.572 351.141Z" fill="#A3D7D0"/>
<path d="M383.04 354.226H376.012V362H383.04V354.226Z" fill="#A3D7D0"/>
<path d="M449.905 354.226H442.876V362H449.905V354.226Z" fill="#A3D7D0"/>
<path d="M438.847 298.539H405.125V306.201H438.847V298.539Z" fill="#B9EAB9"/>
<path d="M439.426 283.233H405.705V290.895H439.426V283.233Z" fill="#B9EAB9"/>
<path d="M427.34 298.539H391.679V306.201H427.34V298.539Z" fill="#A3D7D0"/>
<g opacity="0.62">
<path d="M424.429 298.539H422.698V306.201H424.429V298.539Z" fill="#B9EAB9"/>
</g>
<g opacity="0.62">
<path d="M420.967 298.539H419.236V306.201H420.967V298.539Z" fill="#B9EAB9"/>
</g>
<path d="M395.768 304.841C397.127 304.841 398.23 303.735 398.23 302.371C398.23 301.006 397.127 299.9 395.768 299.9C394.408 299.9 393.305 301.006 393.305 302.371C393.305 303.735 394.408 304.841 395.768 304.841Z" fill="#F3F5FD"/>
<path d="M427.92 283.233H392.259V290.895H427.92V283.233Z" fill="#A3D7D0"/>
<path d="M419.44 284.959H394.555V289.169H419.44V284.959Z" fill="#F3F5FD"/>
<g opacity="0.62">
<path d="M425.008 283.233H421.733V290.895H425.008V283.233Z" fill="#B9EAB9"/>
</g>
<path d="M407.876 298.548H441.597V290.886H407.876V298.548Z" fill="#B9EAB9"/>
<path d="M394.429 298.548H430.09V290.886H394.429V298.548Z" fill="#F3F5FD"/>
<path d="M397.341 298.548H399.072V290.886H397.341V298.548Z" fill="#A3D7D0"/>
<path d="M400.802 298.548H402.533V290.886H400.802V298.548Z" fill="#A3D7D0"/>
<path d="M426.001 297.188C427.361 297.188 428.464 296.082 428.464 294.718C428.464 293.353 427.361 292.247 426.001 292.247C424.641 292.247 423.539 293.353 423.539 294.718C423.539 296.082 424.641 297.188 426.001 297.188Z" fill="#A3D7D0"/>
<path d="M420.942 292.839H405.2V296.595H420.942V292.839Z" fill="#A3D7D0"/>
<path d="M426.737 229.686H426.127V244.8H426.737V229.686Z" fill="#B9EAB9"/>
<path d="M426.432 246.806C427.221 246.806 427.862 246.163 427.862 245.371C427.862 244.579 427.221 243.936 426.432 243.936C425.642 243.936 425.002 244.579 425.002 245.371C425.002 246.163 425.642 246.806 426.432 246.806Z" fill="#B9EAB9"/>
<path d="M419.452 217.847L419.196 263.335H412.274C412.125 263.332 411.976 263.359 411.837 263.414C411.698 263.47 411.571 263.552 411.465 263.657C411.358 263.762 411.273 263.887 411.215 264.026C411.157 264.164 411.127 264.312 411.127 264.462C411.127 264.612 411.157 264.761 411.215 264.899C411.273 265.038 411.358 265.163 411.465 265.268C411.571 265.373 411.698 265.455 411.837 265.51C411.976 265.566 412.125 265.593 412.274 265.589H427.925C428.219 265.583 428.499 265.462 428.705 265.251C428.91 265.04 429.025 264.757 429.025 264.462C429.025 264.168 428.91 263.884 428.705 263.674C428.499 263.463 428.219 263.342 427.925 263.335H421.443L421.699 217.844" fill="#B9EAB9"/>
<path d="M433.856 238.77H406.347L406.508 212.893H433.695L433.856 238.77Z" fill="#A3D7D0"/>
<path d="M77.5296 258.43C76.0112 257.934 74.4537 258.492 72.9629 259.629C74.9264 254.654 75.7368 250.16 72.38 249.957C70.0313 249.816 68.232 251.624 66.8649 254.195C66.3843 249.675 65.1442 246.306 62.3654 247.421C59.3151 248.648 58.8509 252.854 59.3137 257.253C57.9703 255.006 56.523 253.753 55.2097 255.07C51.2888 259.005 60.9122 270.092 60.9122 270.092H63.3024L64.6661 271.58C64.3902 272.166 64.2389 272.515 64.2389 272.515L65.9694 276.052C65.9694 276.052 83.8279 260.499 77.5296 258.43Z" fill="#8DDBE0"/>
<path d="M73.2429 283.973H59.7167L57.4521 268.128H75.5069L73.2429 283.973Z" fill="#B9EAB9"/>
<path d="M49.6707 290.3L35.2823 360.712C35.1901 361.079 34.9782 361.405 34.6803 361.638C34.3824 361.871 34.0155 361.998 33.6377 361.998C33.38 361.998 33.1256 361.939 32.894 361.826C32.6624 361.712 32.4596 361.547 32.3011 361.343C32.1426 361.139 32.0325 360.902 31.9792 360.649C31.926 360.396 31.9309 360.134 31.9937 359.883L46.5873 288.66L49.6707 290.3Z" fill="#B9EAB9"/>
<path d="M83.4717 290.189L97.8601 360.601C97.952 360.969 98.1636 361.295 98.4615 361.528C98.7594 361.761 99.1264 361.888 99.5042 361.888C99.762 361.888 100.016 361.829 100.248 361.715C100.48 361.602 100.683 361.437 100.841 361.233C101 361.029 101.11 360.791 101.163 360.538C101.216 360.285 101.211 360.023 101.148 359.772L86.5551 288.547L83.4717 290.189Z" fill="#B9EAB9"/>
<path d="M98.5929 283.415H34.55C32.9307 283.415 31.6179 284.732 31.6179 286.357V292.834C31.6179 294.459 32.9307 295.776 34.55 295.776H98.5929C100.212 295.776 101.525 294.459 101.525 292.834V286.357C101.525 284.732 100.212 283.415 98.5929 283.415Z" fill="#A3D7D0"/>
</g>
<defs>
<clipPath id="clip0_651_4158">
<rect width="514" height="362" fill="white"/>
</clipPath>
</defs>
</svg>
