<svg width="653" height="365" viewBox="0 0 653 365" fill="none" xmlns="http://www.w3.org/2000/svg">
<path d="M528.962 7.43341H137.004V291.21H528.962V7.43341Z" fill="#C1F3C1"/>
<path d="M446.578 82.3224H219.387V224.847H446.578V82.3224Z" fill="white"/>
<path d="M219.387 82.3224L332.983 149.322L446.578 82.3224H219.387Z" fill="#69E167"/>
<path d="M528.962 7.43341H137.004V30.8094H528.962V7.43341Z" fill="#69E167"/>
<path d="M515.834 24.9861C519.074 24.9861 521.701 22.3603 521.701 19.1211C521.701 15.882 519.074 13.2562 515.834 13.2562C512.594 13.2562 509.968 15.882 509.968 19.1211C509.968 22.3603 512.594 24.9861 515.834 24.9861Z" fill="white"/>
<path d="M417.882 247.607C441.353 247.607 460.38 228.585 460.38 205.12C460.38 181.656 441.353 162.634 417.882 162.634C394.411 162.634 375.384 181.656 375.384 205.12C375.384 228.585 394.411 247.607 417.882 247.607Z" fill="#69E167"/>
<path d="M410.595 228.003C409.789 228.003 409.014 227.695 408.429 227.142L392.285 211.914C391.677 211.34 391.321 210.547 391.297 209.711C391.273 208.875 391.582 208.063 392.156 207.454C392.731 206.846 393.523 206.49 394.36 206.466C395.197 206.442 396.009 206.751 396.617 207.325L410.42 220.346L438.974 188.888C439.537 188.268 440.322 187.897 441.158 187.857C441.994 187.816 442.812 188.109 443.432 188.671C444.052 189.234 444.423 190.019 444.463 190.855C444.504 191.69 444.211 192.508 443.648 193.127L412.931 226.968C412.649 227.278 412.308 227.53 411.928 227.707C411.547 227.884 411.136 227.984 410.716 228C410.675 228.001 410.635 228.003 410.595 228.003Z" fill="white"/>
<path d="M140.722 327.949C128.115 324.033 115.885 318.917 104.74 304.594C102.453 301.66 100.304 297.9 101.558 294.387C102.501 291.744 105.23 290.049 108.002 289.618C109.034 289.467 110.081 289.438 111.12 289.532C111.126 289.532 111.131 289.535 111.133 289.532C112.73 289.696 114.31 290.007 115.852 290.46L116.291 290.587C123.647 292.682 130.654 295.854 137.085 300C137.668 300.372 138.359 300.536 139.046 300.464C139.734 300.393 140.377 300.09 140.871 299.606C141.365 299.122 141.681 298.484 141.768 297.797C141.855 297.11 141.708 296.414 141.349 295.821C140.693 294.747 139.93 293.742 139.071 292.823C137.804 291.495 136.416 290.288 134.925 289.219C132.943 287.77 130.828 286.476 128.759 285.153C121.066 280.242 113.778 274.722 106.965 268.646C102.102 264.303 97.3467 259.486 95.0349 253.381C93.9733 250.574 93.4901 247.337 94.7568 244.617C96.847 240.151 102.768 238.899 107.61 239.826C116.094 241.455 122.872 247.688 128.882 253.902C133.867 259.065 139.452 264.782 146.613 265.099C147.834 265.213 149.061 264.966 150.143 264.389C152.186 263.149 152.712 260.275 151.983 257.994C151.255 255.713 149.57 253.89 147.944 252.139C138.492 241.975 129.19 231.401 123.052 218.947C116.913 206.493 114.195 191.788 118.46 178.564C119.711 174.698 121.589 170.937 124.521 168.128C127.453 165.32 131.563 163.559 135.587 164.096C141.069 164.821 145.198 169.455 147.975 174.245C157.523 190.675 156.939 210.806 159.628 229.626C160.381 234.895 161.474 240.298 164.606 244.635C164.894 245.052 165.269 245.402 165.704 245.662C168.281 247.158 170.593 244.142 171.56 241.583C175.379 231.459 176.334 219.882 183.172 211.503C185.781 208.313 189.473 205.647 193.588 205.674C198.613 205.708 202.916 209.915 204.382 214.733C205.849 219.55 204.971 224.784 203.4 229.568C200.484 238.44 195.253 246.411 189.097 253.415C185.851 257.115 182.177 260.851 181.204 265.676C180.906 267.317 181.031 269.006 181.567 270.585C182.103 272.163 183.034 273.578 184.269 274.695C184.846 275.199 185.519 275.581 186.247 275.82C186.974 276.058 187.742 276.148 188.505 276.083C190.155 275.931 191.647 275.089 193.088 274.269C193.691 273.924 194.297 273.575 194.906 273.232C197.308 271.861 199.71 270.489 202.112 269.116C208.222 265.623 215.593 262.055 221.955 265.063C225.205 266.6 227.328 269.623 228.328 273.092C229.224 276.24 229.224 279.577 228.328 282.725C226.434 289.272 214.49 307.492 209.564 312.191C203.806 317.674 183.856 341.349 140.722 327.949Z" fill="#8DDBE0"/>
</svg>
