<svg width="45" height="45" viewBox="0 0 45 45" fill="none" xmlns="http://www.w3.org/2000/svg">
<rect width="45" height="45" rx="22.5" fill="#EBEBEB"/>
<path d="M31.09 32.5C31.09 28.63 27.24 25.5 22.5 25.5C17.76 25.5 13.91 28.63 13.91 32.5M22.5 22.5C23.8261 22.5 25.0979 21.9732 26.0355 21.0355C26.9732 20.0979 27.5 18.8261 27.5 17.5C27.5 16.1739 26.9732 14.9021 26.0355 13.9645C25.0979 13.0268 23.8261 12.5 22.5 12.5C21.1739 12.5 19.9022 13.0268 18.9645 13.9645C18.0268 14.9021 17.5 16.1739 17.5 17.5C17.5 18.8261 18.0268 20.0979 18.9645 21.0355C19.9022 21.9732 21.1739 22.5 22.5 22.5Z" stroke="black" stroke-opacity="0.5" stroke-width="2" stroke-linecap="round" stroke-linejoin="round"/>
</svg>
