<svg width="25" height="25" viewBox="0 0 25 25" fill="none" xmlns="http://www.w3.org/2000/svg">
<path d="M9.375 2.08334C5.36026 2.08334 2.08333 5.36027 2.08333 9.37501C2.08333 13.3897 5.36026 16.6667 9.375 16.6667C11.1958 16.6667 12.8594 15.9875 14.1398 14.8763L14.5833 15.3198V16.6667L20.8333 22.9167L22.9167 20.8333L16.6667 14.5833H15.3198L14.8763 14.1398C15.9875 12.8594 16.6667 11.1958 16.6667 9.37501C16.6667 5.36027 13.3897 2.08334 9.375 2.08334ZM9.375 4.16668C12.2638 4.16668 14.5833 6.48619 14.5833 9.37501C14.5833 12.2638 12.2638 14.5833 9.375 14.5833C6.48617 14.5833 4.16666 12.2638 4.16666 9.37501C4.16666 6.48619 6.48617 4.16668 9.375 4.16668Z" fill="black" fill-opacity="0.5"/>
</svg>
