<svg width="299" height="219" viewBox="0 0 299 219" fill="none" xmlns="http://www.w3.org/2000/svg">
<g clip-path="url(#clip0_555_3930)">
<path d="M278.372 208.28C290.123 208.28 299.498 196.498 298.979 182.387C298.301 163.936 290.452 137.883 259.515 111.847C221.788 80.0972 240.861 -5.97887 160.703 0.328336C80.5438 6.63554 98.2936 67.4875 53.4591 104.396C12.7568 137.903 0.00219781 158.094 0 183.523C0 197.203 9.24691 208.28 20.6268 208.28H278.372Z" fill="#F3F5FD"/>
<path d="M246.946 5.02421H47.5859V149.011H246.946V5.02421Z" fill="#DEF5ED"/>
<path d="M246.946 5.02421H47.5859V16.885H246.946V5.02421Z" fill="#C1F3C1"/>
<path d="M240.269 13.931C241.917 13.931 243.253 12.5987 243.253 10.9551C243.253 9.3116 241.917 7.97926 240.269 7.97926C238.621 7.97926 237.285 9.3116 237.285 10.9551C237.285 12.5987 238.621 13.931 240.269 13.931Z" fill="white"/>
<path d="M139.476 72.6861V61.576C139.476 61.3665 139.393 61.1656 139.244 61.0174C139.096 60.8693 138.894 60.786 138.684 60.7859H130.505C130.325 60.7851 130.151 60.7238 130.011 60.6119C129.871 60.5 129.773 60.3441 129.733 60.1696C128.981 56.9614 127.707 53.8975 125.964 51.0987C125.869 50.9471 125.827 50.7677 125.847 50.5897C125.867 50.4118 125.947 50.2459 126.074 50.119L131.857 44.3495C131.931 44.2762 131.989 44.1891 132.029 44.0933C132.069 43.9974 132.089 43.8947 132.089 43.7909C132.089 43.6872 132.069 43.5844 132.029 43.4886C131.989 43.3928 131.931 43.3057 131.857 43.2324L123.979 35.374C123.83 35.2259 123.628 35.1427 123.418 35.1427C123.208 35.1427 123.007 35.2259 122.858 35.374L117.073 41.1439C116.945 41.2702 116.779 41.3499 116.601 41.3698C116.422 41.3897 116.242 41.3487 116.09 41.2534C113.285 39.5142 110.213 38.2437 106.997 37.4921C106.822 37.4526 106.665 37.355 106.553 37.2153C106.441 37.0757 106.379 36.9022 106.378 36.7231V28.5656C106.378 28.356 106.295 28.1551 106.146 28.0069C105.998 27.8587 105.796 27.7754 105.586 27.7754H94.4451C94.235 27.7754 94.0335 27.8587 93.8849 28.0069C93.7363 28.1551 93.6528 28.356 93.6528 28.5656V36.7231C93.6521 36.9022 93.5906 37.0757 93.4783 37.2153C93.366 37.355 93.2096 37.4526 93.0345 37.4921C89.818 38.2433 86.746 39.5133 83.94 41.252C83.7879 41.3473 83.6079 41.3884 83.4294 41.3685C83.2509 41.3486 83.0844 41.2689 82.9572 41.1424L77.1718 35.3704C77.0982 35.297 77.0109 35.2388 76.9148 35.1991C76.8186 35.1594 76.7156 35.1389 76.6116 35.1389C76.5075 35.1389 76.4045 35.1594 76.3084 35.1991C76.2122 35.2388 76.1249 35.297 76.0513 35.3704L68.1758 43.228C68.1022 43.3013 68.0438 43.3884 68.004 43.4842C67.9641 43.5801 67.9436 43.6828 67.9436 43.7866C67.9436 43.8903 67.9641 43.993 68.004 44.0889C68.0438 44.1847 68.1022 44.2718 68.1758 44.3451L73.9608 50.1146C74.0871 50.2417 74.1666 50.4078 74.1862 50.5857C74.2058 50.7636 74.1645 50.9429 74.0689 51.0944C72.3257 53.8933 71.0526 56.9574 70.2996 60.1656C70.26 60.3398 70.1624 60.4955 70.0227 60.6074C69.883 60.7193 69.7095 60.7808 69.5304 60.7818H61.3509C61.1408 60.7819 60.9393 60.8652 60.7908 61.0134C60.6422 61.1616 60.5587 61.3625 60.5586 61.572V72.682C60.5586 72.8916 60.6421 73.0926 60.7907 73.2408C60.9392 73.389 61.1408 73.4722 61.3509 73.4722H69.5304C69.7096 73.4733 69.8832 73.5348 70.0229 73.6468C70.1625 73.7587 70.2601 73.9146 70.2996 74.0889C71.0525 77.2969 72.3258 80.3608 74.0692 83.1594C74.1649 83.3108 74.2063 83.4901 74.1867 83.668C74.167 83.846 74.0876 84.012 73.9612 84.1391L68.1758 89.9089C68.0273 90.0571 67.9439 90.258 67.9439 90.4675C67.9439 90.677 68.0273 90.8779 68.1758 91.0261L76.0513 98.8804C76.1249 98.9538 76.2122 99.012 76.3084 99.0517C76.4045 99.0914 76.5075 99.1119 76.6116 99.1119C76.7156 99.1119 76.8186 99.0914 76.9148 99.0517C77.0109 99.012 77.0982 98.9538 77.1718 98.8804L82.9568 93.111C83.084 92.9846 83.2504 92.9049 83.4288 92.885C83.6073 92.8651 83.7872 92.9061 83.9392 93.0014C86.7455 94.7402 89.8177 96.0102 93.0345 96.7612C93.2093 96.8007 93.3655 96.898 93.4777 97.0373C93.59 97.1766 93.6517 97.3497 93.6528 97.5284V105.686C93.6528 105.79 93.6732 105.892 93.713 105.988C93.7528 106.084 93.8112 106.171 93.8848 106.245C93.9583 106.318 94.0457 106.376 94.1419 106.416C94.238 106.456 94.3411 106.476 94.4451 106.476H105.585C105.689 106.476 105.792 106.456 105.888 106.416C105.984 106.376 106.071 106.318 106.145 106.245C106.219 106.171 106.277 106.084 106.317 105.988C106.357 105.892 106.377 105.79 106.377 105.686V97.536C106.378 97.357 106.439 97.1835 106.552 97.0439C106.664 96.9042 106.82 96.8066 106.995 96.767C110.212 96.0161 113.285 94.7462 116.091 93.0076C116.243 92.9123 116.423 92.8713 116.601 92.8912C116.78 92.9111 116.946 92.9908 117.073 93.1172L122.858 98.8852C123.006 99.0333 123.208 99.1164 123.418 99.1164C123.628 99.1164 123.83 99.0333 123.978 98.8852L131.857 91.0308C131.931 90.9575 131.989 90.8703 132.029 90.7745C132.069 90.6786 132.089 90.5759 132.089 90.4721C132.089 90.3683 132.069 90.2656 132.029 90.1697C131.989 90.0738 131.931 89.9867 131.857 89.9133L126.072 84.1435C125.945 84.0167 125.865 83.8507 125.845 83.6728C125.825 83.4948 125.866 83.3154 125.962 83.1637C127.705 80.3653 128.979 77.3014 129.732 74.0933C129.771 73.9187 129.869 73.7628 130.009 73.6509C130.149 73.539 130.323 73.4777 130.503 73.477H138.683C138.787 73.4772 138.89 73.4569 138.986 73.4173C139.083 73.3776 139.17 73.3194 139.244 73.2459C139.318 73.1724 139.376 73.0851 139.416 72.9891C139.456 72.893 139.477 72.79 139.476 72.6861ZM100.589 84.7455C97.0462 84.8604 93.551 83.9101 90.557 82.0183C87.563 80.1264 85.2086 77.3804 83.7996 74.1369C82.3907 70.8934 81.9922 67.3023 82.656 63.83C83.3199 60.3577 85.0153 57.1648 87.5221 54.6659C90.029 52.167 93.2313 50.4776 96.7132 49.8172C100.195 49.1568 103.796 49.5558 107.047 50.9626C110.299 52.3693 113.051 54.7187 114.947 57.7055C116.842 60.6923 117.793 64.1786 117.677 67.7115C117.529 72.184 115.682 76.4331 112.508 79.5965C109.335 82.76 105.073 84.6008 100.589 84.7455Z" fill="white"/>
<path d="M185.545 110.49L184.032 103.709C184.018 103.645 183.991 103.586 183.954 103.532C183.917 103.479 183.869 103.434 183.814 103.399C183.759 103.364 183.698 103.341 183.634 103.33C183.57 103.318 183.504 103.32 183.441 103.334L178.448 104.442C178.338 104.466 178.224 104.452 178.123 104.403C178.022 104.354 177.942 104.272 177.893 104.171C176.997 102.314 175.802 100.617 174.356 99.1445C174.277 99.0651 174.228 98.9613 174.215 98.85C174.203 98.7387 174.229 98.6266 174.289 98.5319L177.034 94.2259C177.105 94.1153 177.128 93.9814 177.1 93.8535C177.071 93.7256 176.993 93.6142 176.882 93.5439L171.002 89.8151C170.891 89.7449 170.757 89.7215 170.628 89.75C170.5 89.7785 170.389 89.8565 170.318 89.967L167.573 94.273C167.512 94.3675 167.421 94.4386 167.315 94.4747C167.208 94.5108 167.093 94.5098 166.987 94.4718C165.037 93.7909 162.989 93.4321 160.923 93.4094C160.811 93.409 160.702 93.3707 160.615 93.3007C160.527 93.2307 160.466 93.1332 160.441 93.024L159.329 88.0444C159.315 87.981 159.289 87.9211 159.251 87.868C159.214 87.8149 159.166 87.7696 159.112 87.7348C159.057 87.7 158.995 87.6763 158.931 87.6651C158.867 87.6539 158.802 87.6554 158.738 87.6696L151.941 89.179C151.813 89.2076 151.702 89.2857 151.631 89.3963C151.56 89.5068 151.537 89.6407 151.565 89.7687L152.677 94.7483C152.701 94.8576 152.687 94.9718 152.637 95.0723C152.588 95.1727 152.506 95.2535 152.404 95.3014C150.543 96.1957 148.841 97.3872 147.365 98.8289C147.285 98.9078 147.181 98.9574 147.07 98.9696C146.958 98.9818 146.845 98.9559 146.751 98.8961L142.433 96.1562C142.322 96.0861 142.188 96.0627 142.059 96.0912C141.931 96.1197 141.82 96.1977 141.749 96.3082L138.013 102.172C137.942 102.283 137.919 102.417 137.948 102.544C137.976 102.672 138.054 102.784 138.165 102.854L142.482 105.592C142.577 105.652 142.648 105.743 142.685 105.849C142.721 105.955 142.72 106.071 142.682 106.176C141.999 108.121 141.639 110.164 141.617 112.224C141.616 112.336 141.578 112.444 141.508 112.532C141.438 112.619 141.34 112.68 141.23 112.705L136.237 113.813C136.174 113.827 136.114 113.854 136.06 113.891C136.007 113.928 135.962 113.976 135.927 114.03C135.892 114.085 135.868 114.146 135.857 114.21C135.846 114.274 135.847 114.339 135.861 114.403L137.375 121.184C137.39 121.248 137.416 121.308 137.453 121.361C137.491 121.414 137.538 121.459 137.593 121.494C137.648 121.529 137.709 121.553 137.773 121.564C137.837 121.575 137.903 121.573 137.967 121.559L142.959 120.451C143.069 120.427 143.183 120.441 143.284 120.49C143.385 120.54 143.466 120.622 143.514 120.723C144.411 122.579 145.605 124.277 147.051 125.749C147.13 125.828 147.18 125.932 147.192 126.043C147.204 126.155 147.178 126.267 147.118 126.361L144.371 130.667C144.301 130.778 144.277 130.912 144.306 131.04C144.334 131.167 144.413 131.279 144.523 131.349L150.401 135.075C150.456 135.11 150.517 135.134 150.581 135.145C150.645 135.156 150.711 135.155 150.775 135.141C150.838 135.127 150.898 135.1 150.951 135.063C151.005 135.026 151.05 134.978 151.085 134.923L153.83 130.618C153.891 130.523 153.982 130.452 154.088 130.416C154.195 130.38 154.31 130.381 154.416 130.419C156.366 131.1 158.414 131.459 160.48 131.481C160.592 131.481 160.701 131.52 160.789 131.59C160.876 131.66 160.937 131.758 160.962 131.867L162.074 136.846C162.088 136.909 162.114 136.969 162.152 137.022C162.189 137.075 162.236 137.121 162.291 137.156C162.346 137.19 162.408 137.214 162.472 137.225C162.536 137.236 162.601 137.235 162.665 137.221L169.464 135.711C169.528 135.697 169.588 135.671 169.641 135.634C169.695 135.596 169.74 135.549 169.775 135.494C169.81 135.44 169.834 135.378 169.845 135.314C169.856 135.251 169.855 135.185 169.841 135.122L168.729 130.142C168.705 130.033 168.719 129.919 168.769 129.818C168.818 129.718 168.9 129.637 169.002 129.589C170.863 128.695 172.565 127.503 174.041 126.062C174.121 125.983 174.225 125.934 174.337 125.921C174.449 125.909 174.561 125.935 174.656 125.995L178.973 128.732C179.028 128.767 179.089 128.791 179.153 128.802C179.217 128.813 179.283 128.812 179.346 128.798C179.41 128.784 179.47 128.757 179.523 128.72C179.577 128.683 179.622 128.635 179.657 128.581L183.396 122.718C183.431 122.664 183.455 122.603 183.466 122.539C183.477 122.475 183.476 122.409 183.462 122.346C183.447 122.283 183.421 122.223 183.383 122.17C183.346 122.116 183.299 122.071 183.244 122.036L178.926 119.297C178.831 119.236 178.76 119.145 178.724 119.039C178.688 118.933 178.688 118.818 178.726 118.712C179.409 116.767 179.769 114.725 179.792 112.665C179.792 112.553 179.831 112.444 179.901 112.357C179.971 112.269 180.069 112.209 180.179 112.184L185.171 111.075C185.298 111.046 185.409 110.969 185.479 110.859C185.549 110.75 185.573 110.617 185.545 110.49ZM163.452 123.121C161.305 123.672 159.042 123.565 156.957 122.816C154.872 122.067 153.06 120.71 151.758 118.921C150.456 117.132 149.724 114.994 149.656 112.785C149.588 110.575 150.188 108.397 151.378 106.532C152.567 104.667 154.292 103.201 156.327 102.327C158.363 101.452 160.615 101.207 162.791 101.625C164.968 102.043 166.968 103.104 168.532 104.671C170.096 106.237 171.151 108.236 171.561 110.408C172.081 113.158 171.531 116.002 170.025 118.363C168.519 120.724 166.169 122.425 163.452 123.121Z" fill="#C1F3C1"/>
<path d="M237.028 59.7575L235.484 52.8413C235.455 52.7109 235.375 52.5973 235.262 52.5256C235.149 52.4539 235.012 52.4299 234.881 52.4588L229.789 53.5895C229.677 53.6138 229.561 53.5996 229.458 53.5492C229.355 53.4989 229.273 53.4153 229.224 53.3122C228.309 51.419 227.091 49.6875 225.616 48.1861C225.536 48.1051 225.485 47.9992 225.472 47.8857C225.46 47.7723 225.486 47.6579 225.547 47.5614L228.347 43.1699C228.419 43.0573 228.443 42.9209 228.414 42.7909C228.384 42.6608 228.305 42.5475 228.192 42.4758L222.195 38.6728C222.082 38.6017 221.946 38.578 221.815 38.607C221.685 38.6361 221.571 38.7154 221.499 38.8277L218.697 43.217C218.635 43.3131 218.542 43.3855 218.434 43.4223C218.326 43.4592 218.208 43.4583 218.1 43.4198C216.112 42.7254 214.023 42.3595 211.916 42.3366C211.801 42.3361 211.69 42.297 211.601 42.2255C211.512 42.1541 211.449 42.0545 211.424 41.9432L210.291 36.8653C210.276 36.8007 210.249 36.7395 210.211 36.6853C210.173 36.6311 210.125 36.5849 210.069 36.5494C210.013 36.5139 209.95 36.4897 209.885 36.4783C209.819 36.4669 209.752 36.4684 209.688 36.4828L202.753 38.0222C202.622 38.0514 202.508 38.1311 202.436 38.2439C202.364 38.3567 202.34 38.4934 202.369 38.6239L203.505 43.7018C203.529 43.8133 203.515 43.9298 203.464 44.0323C203.414 44.1347 203.33 44.2171 203.227 44.2659C201.328 45.1782 199.592 46.3934 198.087 47.8635C198.006 47.9439 197.9 47.9945 197.786 48.007C197.672 48.0195 197.557 47.9931 197.461 47.9322L193.057 45.1397C192.944 45.0684 192.807 45.0447 192.677 45.0737C192.546 45.1028 192.433 45.1822 192.361 45.2946L188.55 51.2748C188.478 51.3875 188.454 51.5238 188.484 51.6538C188.513 51.7839 188.592 51.8972 188.705 51.9689L193.108 54.761C193.204 54.8227 193.277 54.9151 193.314 55.0232C193.351 55.1312 193.35 55.2486 193.311 55.3562C192.615 57.3395 192.248 59.4229 192.225 61.5242C192.225 61.6383 192.186 61.749 192.114 61.8381C192.042 61.9271 191.943 61.9893 191.831 62.0144L186.739 63.1451C186.608 63.1742 186.495 63.2538 186.423 63.3666C186.351 63.4793 186.327 63.6159 186.356 63.7464L187.9 70.6629C187.929 70.7934 188.009 70.9069 188.122 70.9787C188.235 71.0504 188.372 71.0744 188.503 71.0454L193.594 69.9148C193.706 69.8904 193.823 69.9045 193.926 69.9549C194.029 70.0053 194.111 70.0888 194.16 70.192C195.075 72.0852 196.293 73.8166 197.767 75.3178C197.848 75.3989 197.898 75.5048 197.911 75.6184C197.923 75.7319 197.897 75.8463 197.836 75.9429L195.036 80.3344C194.965 80.447 194.941 80.5833 194.97 80.7134C194.999 80.8435 195.079 80.9568 195.192 81.0285L201.186 84.8296C201.299 84.9009 201.435 84.9246 201.566 84.8957C201.696 84.8667 201.81 84.7874 201.882 84.6751L204.682 80.2836C204.744 80.1875 204.836 80.1151 204.944 80.0782C205.053 80.0413 205.17 80.0421 205.278 80.0805C207.267 80.7752 209.356 81.1412 211.463 81.164C211.577 81.1644 211.688 81.2035 211.778 81.2748C211.867 81.3462 211.929 81.4457 211.955 81.5571L213.088 86.635C213.117 86.7654 213.197 86.8789 213.31 86.9506C213.423 87.0223 213.56 87.0463 213.691 87.0175L220.626 85.4777C220.757 85.4486 220.871 85.3689 220.943 85.2562C221.015 85.1434 221.039 85.0068 221.01 84.8763L219.876 79.7984C219.852 79.6869 219.866 79.5703 219.916 79.4678C219.967 79.3653 220.051 79.2829 220.154 79.234C222.052 78.322 223.788 77.1069 225.294 75.6367C225.375 75.5564 225.482 75.5059 225.595 75.4935C225.709 75.4811 225.824 75.5075 225.921 75.5684L230.324 78.3602C230.437 78.4314 230.573 78.4551 230.704 78.4261C230.834 78.3972 230.948 78.3179 231.02 78.2057L234.833 72.2269C234.869 72.171 234.893 72.1087 234.905 72.0435C234.916 71.9783 234.914 71.9114 234.9 71.8468C234.886 71.7822 234.859 71.721 234.82 71.6668C234.782 71.6126 234.734 71.5665 234.678 71.5309L230.274 68.7385C230.178 68.6769 230.105 68.5845 230.068 68.4765C230.031 68.3685 230.032 68.2512 230.071 68.1437C230.767 66.1605 231.134 64.0772 231.157 61.9761C231.158 61.8619 231.197 61.7512 231.269 61.6621C231.34 61.573 231.44 61.5107 231.552 61.4854L236.643 60.3552C236.774 60.3262 236.887 60.2472 236.959 60.1352C237.031 60.0233 237.056 59.8875 237.028 59.7575ZM214.494 72.6397C212.304 73.2008 209.996 73.0923 207.869 72.3284C205.743 71.5645 203.895 70.1804 202.568 68.356C201.24 66.5315 200.493 64.351 200.423 62.0976C200.354 59.8443 200.966 57.6222 202.179 55.7201C203.393 53.8179 205.151 52.3236 207.227 51.4313C209.303 50.5389 211.6 50.2897 213.82 50.716C216.04 51.1424 218.079 52.2246 219.674 53.822C221.27 55.4194 222.346 57.4583 222.764 59.6738C223.294 62.4784 222.734 65.3789 221.198 67.7869C219.662 70.1948 217.265 71.9298 214.494 72.6397Z" fill="#69E167"/>
<path d="M125.33 192.911H111.015C108.528 189.645 104.162 183.062 106.982 180.245C108.264 178.967 109.678 180.183 110.99 182.364C110.535 178.094 110.99 174.017 113.968 172.826C116.678 171.741 117.887 175.01 118.356 179.394C119.693 176.903 121.448 175.149 123.741 175.284C127.015 175.482 126.224 179.84 124.308 184.666C125.763 183.562 127.283 183.022 128.766 183.504C131.868 184.516 128.968 188.86 125.33 192.911Z" fill="#69E167"/>
<path d="M124.583 208.28H111.382L109.172 192.911H126.792L124.583 208.28Z" fill="#C1F3C1"/>
</g>
<defs>
<clipPath id="clip0_555_3930">
<rect width="299" height="219" fill="white"/>
</clipPath>
</defs>
</svg>
