<svg width="24" height="28" viewBox="0 0 24 28" fill="none" xmlns="http://www.w3.org/2000/svg">
<path d="M16 0H8V2.66667H16V0ZM10.6667 17.3333H13.3333V9.33333H10.6667V17.3333ZM21.3667 8.51333L23.2667 6.61333C22.6933 5.92667 22.0667 5.3 21.38 4.72667L19.48 6.62667C17.3568 4.92342 14.7153 3.99668 11.9933 4C5.36 4 0 9.37333 0 16C0 22.6267 5.36 28 11.9933 28C18.6267 28 24 22.6267 24 16C24 13.1667 23.0133 10.5667 21.3667 8.51333ZM12 25.3333C6.84667 25.3333 2.66667 21.1533 2.66667 16C2.66667 10.8467 6.84667 6.66667 12 6.66667C17.1533 6.66667 21.3333 10.8467 21.3333 16C21.3333 21.1533 17.1533 25.3333 12 25.3333Z" fill="white"/>
</svg>
